<svg width="263" height="72" viewBox="0 0 263 72" fill="none" xmlns="http://www.w3.org/2000/svg">
<path d="M83.9961 45.7448V20.9663H99.6066V24.4353H87.8191V31.5503H98.6154V35.0193H87.8191V42.2758H99.7836V45.7448H83.9961Z" fill="#5D3CBB"/>
<path d="M111.096 46.2404C109.657 46.2404 108.324 45.8864 107.097 45.1785C105.869 44.4705 104.878 43.4558 104.123 42.1343C103.392 40.7891 103.026 39.1726 103.026 37.2847V36.7538C103.026 34.8895 103.392 33.2848 104.123 31.9397C104.855 30.5945 105.834 29.568 107.061 28.86C108.288 28.1521 109.633 27.7981 111.096 27.7981C112.229 27.7981 113.173 27.9397 113.928 28.2229C114.707 28.5061 115.344 28.8718 115.84 29.3202C116.335 29.745 116.713 30.1934 116.973 30.6653H117.539V20.9663H121.185V45.7448H117.61V43.267H117.043C116.595 44.0221 115.911 44.7065 114.99 45.3201C114.094 45.9336 112.796 46.2404 111.096 46.2404ZM112.123 43.0546C113.704 43.0546 115.002 42.5472 116.017 41.5325C117.055 40.5177 117.574 39.0664 117.574 37.1785V36.86C117.574 34.9957 117.067 33.5562 116.052 32.5414C115.037 31.5267 113.728 31.0193 112.123 31.0193C110.566 31.0193 109.268 31.5267 108.229 32.5414C107.215 33.5562 106.707 34.9957 106.707 36.86V37.1785C106.707 39.0664 107.215 40.5177 108.229 41.5325C109.268 42.5472 110.566 43.0546 112.123 43.0546Z" fill="#5D3CBB"/>
<path d="M125.703 37.1077V36.5768C125.703 34.7361 126.068 33.1668 126.8 31.8689C127.555 30.5709 128.546 29.568 129.773 28.86C131 28.1521 132.346 27.7981 133.809 27.7981C135.508 27.7981 136.806 28.1167 137.702 28.7538C138.623 29.391 139.295 30.0754 139.72 30.8069H140.286V28.2937H143.826V49.32C143.826 50.382 143.508 51.2315 142.871 51.8687C142.257 52.5058 141.407 52.8244 140.322 52.8244H128.57V49.6386H139.189C139.874 49.6386 140.216 49.2846 140.216 48.5767V43.0192H139.649C139.39 43.444 139.024 43.8805 138.552 44.3289C138.08 44.7773 137.455 45.1431 136.676 45.4263C135.921 45.7094 134.965 45.851 133.809 45.851C132.346 45.851 130.989 45.5088 129.738 44.8245C128.511 44.1165 127.531 43.1136 126.8 41.8157C126.068 40.4941 125.703 38.9248 125.703 37.1077ZM134.8 42.6652C136.381 42.6652 137.679 42.1696 138.694 41.1785C139.732 40.1638 140.251 38.7715 140.251 37.0016V36.683C140.251 34.8659 139.744 33.4736 138.729 32.506C137.714 31.5149 136.405 31.0193 134.8 31.0193C133.242 31.0193 131.944 31.5149 130.906 32.506C129.891 33.4736 129.384 34.8659 129.384 36.683V37.0016C129.384 38.7715 129.891 40.1638 130.906 41.1785C131.944 42.1696 133.242 42.6652 134.8 42.6652Z" fill="#5D3CBB"/>
<path d="M157.194 46.2404C155.424 46.2404 153.879 45.8746 152.557 45.1431C151.236 44.3879 150.197 43.3378 149.442 41.9927C148.711 40.6239 148.345 39.0428 148.345 37.2493V36.8246C148.345 35.0075 148.711 33.4264 149.442 32.0812C150.174 30.7125 151.188 29.6624 152.486 28.9308C153.808 28.1757 155.33 27.7981 157.053 27.7981C158.728 27.7981 160.191 28.1757 161.442 28.9308C162.716 29.6624 163.707 30.6889 164.415 32.0105C165.123 33.332 165.477 34.8777 165.477 36.6476V38.0281H152.062C152.109 39.562 152.616 40.7891 153.584 41.7095C154.575 42.6062 155.802 43.0546 157.265 43.0546C158.634 43.0546 159.66 42.7478 160.345 42.1343C161.053 41.5207 161.595 40.8127 161.973 40.0104L164.982 41.5679C164.651 42.2286 164.168 42.9248 163.53 43.6564C162.917 44.3879 162.103 45.0015 161.088 45.497C160.073 45.9926 158.775 46.2404 157.194 46.2404ZM152.097 35.2317H161.761C161.666 33.9101 161.194 32.8836 160.345 32.152C159.495 31.3969 158.386 31.0193 157.017 31.0193C155.649 31.0193 154.528 31.3969 153.654 32.152C152.805 32.8836 152.286 33.9101 152.097 35.2317Z" fill="#5D3CBB"/>
<path d="M169.76 45.7448V20.9663H173.583V31.2671H174.149L183.388 20.9663H188.379L177.193 33.1786L188.769 45.7448H183.636L174.149 35.2317H173.583V45.7448H169.76Z" fill="#5D3CBB"/>
<path d="M197.164 46.2404C195.913 46.2404 194.792 46.028 193.801 45.6032C192.833 45.1785 192.055 44.5531 191.465 43.7272C190.898 42.9012 190.615 41.8983 190.615 40.7183C190.615 39.5148 190.898 38.5237 191.465 37.7449C192.055 36.9426 192.845 36.3408 193.836 35.9396C194.851 35.5384 195.996 35.3379 197.27 35.3379H202.58V34.2051C202.58 33.1904 202.273 32.3762 201.659 31.7627C201.046 31.1491 200.102 30.8423 198.827 30.8423C197.577 30.8423 196.621 31.1373 195.96 31.7273C195.299 32.3172 194.863 33.0842 194.65 34.0281L191.252 32.9308C191.535 31.9869 191.984 31.1373 192.597 30.3821C193.235 29.6034 194.072 28.978 195.111 28.5061C196.149 28.0341 197.4 27.7981 198.863 27.7981C201.128 27.7981 202.91 28.3763 204.208 29.5326C205.506 30.6889 206.155 32.329 206.155 34.4529V41.6387C206.155 42.3466 206.485 42.7006 207.146 42.7006H208.633V45.7448H205.907C205.081 45.7448 204.408 45.5324 203.889 45.1077C203.37 44.6829 203.111 44.1047 203.111 43.3732V43.267H202.58C202.391 43.621 202.108 44.0339 201.73 44.5059C201.352 44.9779 200.798 45.3909 200.066 45.7448C199.335 46.0752 198.367 46.2404 197.164 46.2404ZM197.695 43.2316C199.158 43.2316 200.338 42.8186 201.234 41.9927C202.131 41.1431 202.58 39.9868 202.58 38.5237V38.1697H197.482C196.515 38.1697 195.736 38.3821 195.146 38.8068C194.556 39.208 194.261 39.8098 194.261 40.6121C194.261 41.4145 194.568 42.0517 195.181 42.5236C195.795 42.9956 196.633 43.2316 197.695 43.2316Z" fill="#5D3CBB"/>
<path d="M212.178 45.7448V28.2937H215.753V30.3468H216.319C216.602 29.6152 217.051 29.0842 217.664 28.7538C218.301 28.3999 219.08 28.2229 220.001 28.2229H222.089V31.5149H219.859C218.679 31.5149 217.712 31.8453 216.956 32.506C216.201 33.1432 215.824 34.1343 215.824 35.4794V45.7448H212.178Z" fill="#5D3CBB"/>
<path d="M232.415 45.7448C231.353 45.7448 230.504 45.4263 229.867 44.7891C229.253 44.1519 228.946 43.3024 228.946 42.2404V31.3733H224.132V28.2937H228.946V22.5238H232.592V28.2937H237.796V31.3733H232.592V41.6033C232.592 42.3112 232.923 42.6652 233.583 42.6652H237.229V45.7448H232.415Z" fill="#5D3CBB"/>
<rect x="32.4052" y="39.6938" width="25.0213" height="25.0213" transform="rotate(-45 32.4052 39.6938)" stroke="#5D3CBB" stroke-width="3.31855"/>
<rect x="32.4052" y="29.6733" width="25.0213" height="25.0213" transform="rotate(-45 32.4052 29.6733)" stroke="#5D3CBB" stroke-width="3.31855"/>
</svg>
