<svg width="263" height="86" viewBox="0 0 263 86" fill="none" xmlns="http://www.w3.org/2000/svg">
<path d="M95.121 42.2062H76.3299V57.5848H74.6465V25.8267H76.3299V40.7048H95.121V25.8267H96.8044V57.5848H95.121V42.2062Z" fill="#0D5C36"/>
<path d="M124.8 57.5848C123.557 57.5848 122.905 56.9479 122.844 55.6739V53.9904H122.662C122.116 55.1734 121.252 56.1592 120.069 56.9479C118.886 57.7365 117.293 58.1308 115.291 58.1308C112.895 58.1308 111.045 57.5545 109.74 56.4019C108.436 55.2492 107.784 53.6264 107.784 51.5335C107.784 50.5325 107.936 49.6225 108.239 48.8036C108.542 47.9846 109.043 47.2869 109.74 46.7106C110.468 46.104 111.393 45.649 112.516 45.3457C113.668 45.012 115.079 44.8452 116.747 44.8452H122.798V41.7512C122.798 39.5673 122.268 37.9597 121.206 36.9284C120.144 35.8667 118.567 35.3359 116.474 35.3359C113.229 35.3359 110.984 36.7009 109.74 39.4308L108.603 38.6573C109.24 37.2317 110.18 36.0942 111.424 35.2449C112.667 34.3653 114.366 33.9254 116.52 33.9254C119.098 33.9254 121.054 34.5928 122.389 35.9274C123.724 37.2317 124.391 39.1123 124.391 41.5693V56.1744H127.94V57.5848H124.8ZM115.428 56.7204C116.429 56.7204 117.369 56.599 118.249 56.3564C119.159 56.0834 119.947 55.7042 120.615 55.2189C121.282 54.7336 121.813 54.1269 122.207 53.3989C122.601 52.671 122.798 51.8217 122.798 50.851V46.1191H116.747C114.199 46.1191 112.349 46.559 111.196 47.4386C110.044 48.2879 109.467 49.4254 109.467 50.851V52.125C109.467 53.6416 110.013 54.7942 111.105 55.5829C112.228 56.3412 113.668 56.7204 115.428 56.7204Z" fill="#0D5C36"/>
<path d="M137.152 57.5848V34.4714H138.744V38.5208H138.926C139.411 37.4289 140.2 36.4886 141.292 35.6999C142.384 34.8809 143.961 34.4714 146.024 34.4714H147.753V35.9729H145.751C144.811 35.9729 143.916 36.0942 143.066 36.3369C142.217 36.5795 141.474 36.9435 140.837 37.4289C140.2 37.9142 139.684 38.5208 139.29 39.2488C138.926 39.9465 138.744 40.7654 138.744 41.7058V57.5848H137.152Z" fill="#0D5C36"/>
<path d="M153.861 34.4714H155.545L163.28 55.8559H163.416L171.151 34.4714H172.743L164.235 57.5848H162.37L153.861 34.4714Z" fill="#0D5C36"/>
<path d="M189.672 58.1308C186.609 58.1308 184.182 57.0995 182.393 55.0369C180.633 52.9743 179.754 49.9714 179.754 46.0281C179.754 42.1152 180.618 39.1275 182.347 37.0649C184.076 34.9719 186.457 33.9254 189.491 33.9254C190.916 33.9254 192.205 34.1984 193.358 34.7444C194.541 35.2904 195.542 36.0639 196.361 37.0649C197.21 38.0658 197.862 39.2791 198.317 40.7048C198.772 42.1001 199 43.6622 199 45.3912V46.1191H181.437V47.3476C181.437 48.7732 181.619 50.0624 181.983 51.215C182.347 52.3676 182.878 53.3535 183.576 54.1724C184.304 54.9914 185.168 55.6284 186.169 56.0834C187.2 56.508 188.368 56.7204 189.672 56.7204C193.343 56.7204 195.876 54.9611 197.271 51.4425L198.499 52.125C197.802 53.9449 196.71 55.4009 195.223 56.4929C193.737 57.5848 191.887 58.1308 189.672 58.1308ZM189.491 35.3359C188.217 35.3359 187.079 35.5634 186.078 36.0184C185.107 36.4431 184.273 37.0649 183.576 37.8838C182.878 38.7028 182.347 39.6886 181.983 40.8413C181.619 41.9939 181.437 43.2679 181.437 44.6632V44.8452H197.271V44.5722C197.271 43.1769 197.074 41.9181 196.679 40.7958C196.315 39.6431 195.785 38.6725 195.087 37.8838C194.42 37.0649 193.601 36.4431 192.63 36.0184C191.69 35.5634 190.643 35.3359 189.491 35.3359Z" fill="#0D5C36"/>
<path d="M216.021 58.1308C214.11 58.1308 212.442 57.782 211.016 57.0844C209.621 56.3867 208.393 55.2947 207.331 53.8084L208.559 52.8985C209.591 54.2634 210.683 55.2492 211.835 55.8559C213.018 56.4322 214.429 56.7204 216.067 56.7204C218.129 56.7204 219.692 56.2957 220.753 55.4464C221.815 54.5971 222.346 53.3686 222.346 51.761C222.346 50.214 221.891 49.0614 220.981 48.3031C220.101 47.5448 218.736 47.0139 216.886 46.7106L214.929 46.3921C213.898 46.2405 212.958 46.013 212.108 45.7096C211.289 45.4063 210.577 45.012 209.97 44.5267C209.394 44.011 208.939 43.3892 208.605 42.6612C208.302 41.9332 208.15 41.0536 208.15 40.0223C208.15 39.0213 208.332 38.1417 208.696 37.3834C209.09 36.625 209.621 35.9881 210.288 35.4724C210.986 34.9568 211.79 34.5776 212.7 34.3349C213.64 34.0619 214.641 33.9254 215.703 33.9254C217.644 33.9254 219.221 34.2743 220.435 34.9719C221.648 35.6392 222.649 36.4279 223.438 37.3379L222.3 38.3843C221.966 37.99 221.587 37.6109 221.163 37.2469C220.768 36.8829 220.313 36.5644 219.798 36.2914C219.282 35.9881 218.675 35.7606 217.978 35.6089C217.31 35.4269 216.537 35.3359 215.657 35.3359C213.837 35.3359 212.381 35.7302 211.289 36.5189C210.228 37.3075 209.697 38.4602 209.697 39.9768C209.697 41.5238 210.152 42.6612 211.062 43.3892C211.972 44.0869 213.352 44.5873 215.202 44.8907L217.159 45.2092C219.312 45.5428 220.965 46.2101 222.118 47.2111C223.301 48.1817 223.893 49.6529 223.893 51.6245C223.893 53.6871 223.195 55.2947 221.8 56.4474C220.404 57.5697 218.478 58.1308 216.021 58.1308Z" fill="#0D5C36"/>
<path d="M237.58 57.5848C236.275 57.5848 235.623 56.9479 235.623 55.6739V35.8819H231.437V34.4714H234.44C234.956 34.4714 235.289 34.3653 235.441 34.1529C235.623 33.9406 235.714 33.5766 235.714 33.061V27.9196H237.216V34.4714H242.63V35.8819H237.216V56.1744H242.266V57.5848H237.58Z" fill="#0D5C36"/>
<path d="M37.2266 10.1689C36.6751 9.62932 35.8415 9.62932 35.29 10.1689C33.2959 12.1204 29.3983 16.2572 26.002 21.7754C22.6034 27.2974 19.7295 34.1656 19.7295 41.5889C19.7295 49.0122 22.6034 55.8803 26.002 61.4023C29.3985 66.9209 33.296 71.0584 35.29 73.0098C35.8415 73.5493 36.6752 73.5494 37.2266 73.0098C39.2206 71.0584 43.1181 66.9209 46.5146 61.4023C49.9132 55.8803 52.7871 49.0122 52.7871 41.5889C52.7871 34.1656 49.9132 27.2974 46.5146 21.7754C43.1184 16.2572 39.2207 12.1204 37.2266 10.1689Z" stroke="#0D5C36" stroke-width="1.06638"/>
<path d="M38.4922 38.356C38.5891 38.6503 38.8097 38.8882 39.0957 39.0073L45.2979 41.5894L39.0957 44.1714C38.8096 44.2905 38.589 44.5283 38.4922 44.8228L36.2588 51.6128L34.0254 44.8228C33.9285 44.5283 33.708 44.2905 33.4219 44.1714L27.2197 41.5894L33.4219 39.0073C33.7079 38.8882 33.9285 38.6502 34.0254 38.356L36.2588 31.5649L38.4922 38.356Z" stroke="#0D5C36" stroke-width="1.06638"/>
<path d="M36.2578 21.3285L42.6561 15.9966" stroke="#0D5C36" stroke-width="1.06638"/>
<path d="M36.2578 25.5936L44.7888 19.1953" stroke="#0D5C36" stroke-width="1.06638"/>
<path d="M36.2578 29.8592L46.9216 22.3945" stroke="#0D5C36" stroke-width="1.06638"/>
<path d="M36.2578 61.8502L29.8595 67.1821" stroke="#0D5C36" stroke-width="1.06638"/>
<path d="M36.2578 57.5851L27.7268 63.9834" stroke="#0D5C36" stroke-width="1.06638"/>
<path d="M36.2578 53.3195L25.594 60.7842" stroke="#0D5C36" stroke-width="1.06638"/>
<path d="M36.2559 9.59766V31.9916" stroke="#0D5C36" stroke-width="1.06638"/>
<path d="M36.2559 51.1865V73.5805" stroke="#0D5C36" stroke-width="1.06638"/>
</svg>
