<svg width="62" height="62" viewBox="0 0 62 62" fill="none" xmlns="http://www.w3.org/2000/svg">
<path d="M37.859 37.468C43.4616 35.1925 47.0928 29.711 47.0028 23.6646C47.0028 15.3544 39.8232 8.59375 30.9983 8.59375C22.1734 8.59375 14.9938 15.3544 14.9938 23.6646C14.9038 29.711 18.5348 35.1925 24.1376 37.468L24.2616 37.5352L25.1089 38.9254C23.5962 39.801 23.0798 41.737 23.9553 43.2496C24.0704 43.4484 24.2068 43.6342 24.3622 43.8036C23.176 45.104 23.2684 47.1196 24.5686 48.3059C25.1593 48.8447 25.931 49.1419 26.7304 49.1384H35.2662C37.0263 49.1462 38.4593 47.7255 38.4671 45.9654C38.4705 45.1658 38.1734 44.3942 37.6346 43.8036C38.8161 42.5156 38.7297 40.5137 37.4417 39.3323C37.2723 39.177 37.0867 39.0405 36.8877 38.9254L37.735 37.5352L37.859 37.468ZM35.266 47.0045H26.7303C26.1411 47.0045 25.6633 46.5268 25.6633 45.9375C25.6633 45.3483 26.1411 44.8706 26.7303 44.8706H35.266C35.8553 44.8706 36.333 45.3483 36.333 45.9375C36.333 46.5268 35.8553 47.0045 35.266 47.0045ZM35.266 42.7366H26.7303C26.1411 42.7366 25.6633 42.2589 25.6633 41.6697C25.6633 41.0804 26.1411 40.6027 26.7303 40.6027H35.266C35.8553 40.6027 36.333 41.0804 36.333 41.6697C36.333 42.2589 35.8553 42.7366 35.266 42.7366ZM36.8905 35.5654L36.4638 35.7972C36.2987 35.8872 36.1601 36.0192 36.0621 36.1796L34.6669 38.4688H34.1991V30.3748L39.2213 25.3526L37.7126 23.8437L32.3778 29.1786C32.1777 29.3786 32.0653 29.6499 32.0651 29.9329V38.4686H29.9312V29.9329C29.9311 29.6499 29.8186 29.3786 29.6186 29.1786L24.2838 23.8437L22.7751 25.3524L27.7973 30.3746V38.4686H27.3294L25.9342 36.1795C25.8362 36.019 25.6976 35.8871 25.5325 35.7971L25.1059 35.5653C25.0716 35.547 25.0365 35.5305 25.0006 35.5158C20.1767 33.5751 17.0468 28.8636 17.1276 23.6646C17.1276 16.5314 23.3496 10.7277 30.9982 10.7277C38.6467 10.7277 44.8687 16.5314 44.8687 23.6646C44.9495 28.8636 41.8195 33.5751 36.9957 35.5158C36.9598 35.5306 36.9246 35.5472 36.8905 35.5654Z" fill="#692AFF"/>
<path d="M9.06757 8.70689L8.11328 10.6155L14.5147 13.8162L15.469 11.9076L9.06757 8.70689Z" fill="#692AFF"/>
<path d="M53.0608 9.11681L46.2715 11.3813L46.9467 13.4056L53.736 11.1411L53.0608 9.11681Z" fill="#692AFF"/>
<path d="M10.726 22.4644H4.32422V24.5983H10.726V22.4644Z" fill="#692AFF"/>
<path d="M57.6713 22.4644H51.2695V24.5983H57.6713V22.4644Z" fill="#692AFF"/>
<path d="M14.5147 35.3791L8.11328 38.5798L9.06757 40.4884L15.469 37.2877L14.5147 35.3791Z" fill="#692AFF"/>
<path d="M47.4797 35.3834L46.5254 37.292L52.9268 40.4927L53.8811 38.5841L47.4797 35.3834Z" fill="#692AFF"/>
<path d="M32.0656 1.125H29.9316V6.45983H32.0656V1.125Z" fill="#692AFF"/>
<path d="M61.9406 51.2724V49.1384C48.0206 49.1384 33.2284 52.5034 33.1331 58.7411H28.8642C28.7688 52.5034 13.9767 49.1384 0.0566406 49.1384V51.2724C15.6875 51.2724 26.6023 55.1953 26.725 58.7411H0.0566406V60.875H61.9406V58.7411H35.2722C35.3949 55.1953 46.3097 51.2724 61.9406 51.2724Z" fill="#692AFF"/>
<path d="M0.112245 54.476L0 56.6069L20.2759 57.6749L20.3882 55.544L0.112245 54.476Z" fill="#692AFF"/>
<path d="M61.8853 54.4742L41.6094 55.5442L41.7218 57.6751L61.9977 56.6051L61.8853 54.4742Z" fill="#692AFF"/>
</svg>
