<svg width="48" height="48" viewBox="0 0 48 48" fill="none" xmlns="http://www.w3.org/2000/svg">
<circle cx="24" cy="24" r="24" fill="#F2E6E6"/>
<path d="M15.8727 22.6263C16.0495 22.6263 16.1927 22.4831 16.1927 22.3063C16.1927 22.1296 16.0495 21.9863 15.8727 21.9863C15.696 21.9863 15.5527 22.1296 15.5527 22.3063C15.5527 22.4831 15.696 22.6263 15.8727 22.6263Z" fill="#9C7E7E"/>
<path d="M19.0332 15.625C19.0957 15.6875 19.1776 15.7187 19.2595 15.7187C19.3413 15.7187 19.4232 15.6875 19.4857 15.625L19.7119 15.3987L19.9382 15.625C20.0007 15.6875 20.0826 15.7187 20.1644 15.7187C20.2463 15.7187 20.3282 15.6875 20.3907 15.625C20.5156 15.5 20.5156 15.2975 20.3907 15.1725L20.1644 14.9463L20.3907 14.72C20.5157 14.5951 20.5157 14.3925 20.3907 14.2675C20.2658 14.1426 20.0632 14.1426 19.9383 14.2675L19.712 14.4938L19.4858 14.2675C19.3608 14.1426 19.1583 14.1426 19.0333 14.2675C18.9083 14.3925 18.9083 14.5951 19.0333 14.72L19.2595 14.9463L19.0333 15.1725C18.9082 15.2975 18.9082 15.5 19.0332 15.625Z" fill="#9C7E7E"/>
<path d="M16.5127 17.1863C15.9834 17.1863 15.5527 17.6169 15.5527 18.1463C15.5527 18.6756 15.9834 19.1063 16.5127 19.1063C17.0421 19.1063 17.4727 18.6756 17.4727 18.1463C17.4727 17.6169 17.0422 17.1863 16.5127 17.1863ZM16.5127 18.4663C16.3363 18.4663 16.1927 18.3227 16.1927 18.1463C16.1927 17.9699 16.3363 17.8263 16.5127 17.8263C16.6891 17.8263 16.8327 17.9699 16.8327 18.1463C16.8327 18.3227 16.6891 18.4663 16.5127 18.4663Z" fill="#9C7E7E"/>
<path d="M26.5936 29.9862H25.1536V24.2262C25.1536 24.1513 25.1274 24.0788 25.0794 24.0213L23.4794 22.1013C23.3908 21.9947 23.2436 21.9575 23.1147 22.009L21.5147 22.649C21.3506 22.7147 21.2708 22.9008 21.3364 23.0651C21.4021 23.229 21.588 23.3087 21.7524 23.2434L23.1365 22.6896L24.5136 24.3419V29.9862H23.0736H22.7172C22.4726 29.9862 22.2736 29.7871 22.2736 29.5426V29.0303C22.2736 27.9875 21.8262 26.9957 21.0137 26.2378C19.7678 25.0756 19.1245 23.4309 19.249 21.7258C19.4416 19.0836 21.5676 16.8722 24.194 16.5817C24.4063 16.5581 24.6215 16.5463 24.8335 16.5463C25.0102 16.5463 25.1535 16.403 25.1535 16.2263C25.1535 16.0495 25.0102 15.9062 24.8335 15.9062C24.598 15.9062 24.3591 15.9195 24.1236 15.9455C21.1957 16.2693 18.8256 18.7343 18.6107 21.6791C18.4721 23.5785 19.189 25.4107 20.5772 26.7059C21.2585 27.3413 21.6336 28.1668 21.6336 29.0303V29.5426C21.6336 29.9975 21.9161 30.3863 22.3144 30.5467C22.2902 30.6227 22.2736 30.7022 22.2736 30.7862C22.2736 30.967 22.3362 31.132 22.4377 31.2662C22.3362 31.4003 22.2736 31.5654 22.2736 31.7462C22.2736 32.1325 22.5489 32.4556 22.9136 32.53V32.8798C22.9136 33.4016 23.3382 33.8262 23.86 33.8262H25.8072C26.3291 33.8262 26.7536 33.4016 26.7536 32.8798V32.53C27.1184 32.4557 27.3936 32.1325 27.3936 31.7462C27.3936 31.5654 27.3311 31.4003 27.2296 31.2662C27.3311 31.132 27.3936 30.967 27.3936 30.7862C27.3936 30.3451 27.0348 29.9862 26.5936 29.9862ZM26.5936 30.6262C26.682 30.6262 26.7536 30.6979 26.7536 30.7862C26.7536 30.8745 26.682 30.9462 26.5936 30.9462H23.0736C22.9853 30.9462 22.9136 30.8745 22.9136 30.7862C22.9136 30.6979 22.9853 30.6262 23.0736 30.6262H26.5936ZM25.8072 33.1862H23.86C23.6912 33.1862 23.5536 33.0487 23.5536 32.8798V32.5462H26.1136V32.8798C26.1136 33.0487 25.9762 33.1862 25.8072 33.1862ZM26.5936 31.9062H23.0736C22.9853 31.9062 22.9136 31.8345 22.9136 31.7462C22.9136 31.6579 22.9853 31.5862 23.0736 31.5862H26.5936C26.682 31.5862 26.7536 31.6579 26.7536 31.7462C26.7536 31.8345 26.682 31.9062 26.5936 31.9062Z" fill="#9C7E7E"/>
<path d="M21.0169 18.8927C20.6275 19.3279 20.3179 19.8211 20.0964 20.3587C20.0292 20.5221 20.1071 20.7091 20.2705 20.7765C20.3103 20.7929 20.3516 20.8007 20.3922 20.8007C20.5179 20.8007 20.6373 20.726 20.6883 20.6024C20.882 20.1319 21.153 19.7004 21.4937 19.3196C21.6115 19.1879 21.6004 18.9855 21.4687 18.8678C21.3369 18.7496 21.1343 18.7612 21.0169 18.8927Z" fill="#9C7E7E"/>
<path d="M23.0619 17.501C22.6762 17.6433 22.3071 17.8329 21.9649 18.0645C21.8185 18.1635 21.7802 18.3625 21.8793 18.5089C21.9411 18.6003 22.0419 18.6495 22.1446 18.6495C22.2063 18.6495 22.2687 18.6317 22.3236 18.5945C22.623 18.3918 22.9458 18.2259 23.2831 18.1017C23.4491 18.0404 23.5339 17.8565 23.4728 17.6907C23.4115 17.5249 23.2275 17.4399 23.0619 17.501Z" fill="#9C7E7E"/>
<path d="M31.7735 20.0739C31.4642 19.7646 31.0714 19.5515 30.6424 19.4561C30.6902 18.9326 30.5142 18.417 30.1489 18.0515C30.1378 18.0351 30.1309 18.0167 30.1164 18.002C29.7267 17.6079 29.1816 17.4595 28.6746 17.5567C28.6645 17.1777 28.5165 16.8169 28.2472 16.5476C27.6642 15.9647 26.517 16.0092 25.8867 16.6399C25.8267 16.6999 25.793 16.7814 25.793 16.8662V28.3862C25.793 28.5063 25.8603 28.6165 25.9674 28.6711C26.24 28.8103 26.5705 28.8941 26.897 28.8941C27.2782 28.8941 27.6539 28.7802 27.9262 28.5077C27.9866 28.4474 28.042 28.3826 28.0922 28.3135C28.7666 28.602 29.5809 28.4455 30.1369 27.8894C30.6319 27.3945 30.8139 26.6791 30.6269 26.0402C30.6694 26.0046 30.7095 25.9677 30.748 25.9292C31.2974 25.38 31.4749 24.582 31.2282 23.8948C31.3957 23.7904 31.5502 23.6678 31.6898 23.5283C32.6654 22.5528 32.7029 21.0031 31.7735 20.0739ZM30.838 23.3743C30.5376 23.1472 30.1772 23.0176 29.7938 23.0153C29.3232 23.0195 28.8807 23.1927 28.5462 23.5231C28.4204 23.6474 28.4191 23.85 28.5434 23.9756C28.6678 24.1015 28.8702 24.1027 28.9958 23.9784C29.4295 23.5499 30.1263 23.5507 30.5618 23.9732C30.8092 24.4571 30.7062 25.066 30.2955 25.4768C30.2306 25.5418 30.1562 25.6014 30.0682 25.6587C29.9349 25.7457 29.8858 25.9174 29.953 26.0616C30.1634 26.5133 30.0554 27.066 29.6845 27.4369C29.3148 27.8066 28.7786 27.9119 28.3401 27.7228C28.3401 27.7222 28.3404 27.7217 28.3404 27.7211L28.3429 27.3026C28.3473 26.6085 27.786 26.0403 27.0918 26.0359C27.091 26.0359 27.0903 26.0359 27.0898 26.0359C26.914 26.0359 26.7709 26.1777 26.7698 26.3539C26.7686 26.5306 26.911 26.6748 27.0878 26.6759C27.4292 26.678 27.7051 26.9573 27.7029 27.2987L27.7004 27.7174C27.7004 27.72 27.7018 27.7223 27.7019 27.7249C27.6958 27.7352 27.6857 27.7423 27.6807 27.7533C27.6291 27.868 27.5596 27.9694 27.474 28.055C27.2378 28.2917 26.7946 28.2997 26.433 28.1748V17.0105C26.8326 16.7044 27.4826 16.6883 27.7947 17.0002C28.0151 17.2206 28.0885 17.5554 27.9913 17.8774C27.9451 17.9139 27.8966 17.9459 27.8538 17.9883C27.5497 18.2886 27.3808 18.6895 27.3782 19.1168C27.3755 19.5441 27.5396 19.947 27.8398 20.2511C27.9025 20.3143 27.985 20.3461 28.0675 20.3461C28.1488 20.3461 28.23 20.3153 28.2925 20.2538C28.4181 20.1295 28.4194 19.9269 28.2951 19.8011C28.1148 19.6188 28.0166 19.3772 28.0181 19.1208C28.0196 18.8644 28.121 18.6239 28.3034 18.4436C28.437 18.3115 28.6006 18.2291 28.7721 18.1916C29.115 18.1528 29.454 18.2617 29.6959 18.5036C29.9839 18.7916 30.0826 19.2144 29.96 19.6349C29.9328 19.7279 29.9494 19.8282 30.0049 19.9075C30.0603 19.9871 30.1488 20.0371 30.2455 20.0436C30.6616 20.072 31.0335 20.2389 31.321 20.5264C32.0006 21.2063 31.9631 22.3499 31.2374 23.0758C31.1195 23.1937 30.9828 23.2897 30.838 23.3743Z" fill="#9C7E7E"/>
</svg>
