<svg width="48" height="48" viewBox="0 0 48 48" fill="none" xmlns="http://www.w3.org/2000/svg">
<circle cx="24" cy="24" r="24" fill="#FFE7E3"/>
<path d="M34.0793 20.7617H32.649V20.6011C32.649 20.2012 32.3237 19.876 31.9238 19.876H29.1028C28.9084 19.876 28.7507 20.0336 28.7507 20.228C28.7507 20.4225 28.9084 20.5801 29.1028 20.5801H31.9238C31.9354 20.5801 31.9448 20.5895 31.9448 20.6011V24.8937C31.9448 25.0882 32.1025 25.2458 32.2969 25.2458C32.4913 25.2458 32.649 25.0882 32.649 24.8937V21.4658H34.0793C34.1269 21.4658 34.1656 21.5046 34.1656 21.5522V33.8347C34.1656 34.6404 33.5102 35.2958 32.7045 35.2958H15.2941C14.4885 35.2958 13.833 34.6404 13.833 33.8347V21.5522C13.833 21.5046 13.8718 21.4658 13.9194 21.4658H15.3966V33.5069C15.3966 34.0033 15.8005 34.4073 16.297 34.4073H31.7485C32.245 34.4073 32.6489 34.0034 32.6489 33.5069V26.3953C32.6489 26.2008 32.4913 26.0433 32.2969 26.0433C32.1024 26.0433 31.9448 26.2008 31.9448 26.3953V31.4617H26.2488C25.511 31.4617 24.8452 31.7737 24.3749 32.272V27.718C24.3749 27.5236 24.2172 27.366 24.0228 27.366C23.8284 27.366 23.6707 27.5236 23.6707 27.718V32.2721C23.2004 31.7738 22.5345 31.4618 21.7968 31.4618H20.1971C20.0027 31.4618 19.845 31.6194 19.845 31.8138C19.845 32.0083 20.0027 32.1659 20.1971 32.1659H21.7968C22.7152 32.1659 23.4808 32.8301 23.6399 33.7031H16.297C16.1888 33.7031 16.1008 33.6151 16.1008 33.5069V32.1659H18.6954C18.8899 32.1659 19.0475 32.0083 19.0475 31.8138C19.0475 31.6194 18.8899 31.4618 18.6954 31.4618H16.1008V20.6011C16.1008 20.5895 16.1102 20.5801 16.1218 20.5801H18.9428C19.1372 20.5801 19.2949 20.4225 19.2949 20.228C19.2949 20.0336 19.1372 19.876 18.9428 19.876H16.1218C15.7219 19.876 15.3966 20.2013 15.3966 20.6011V20.7617H13.9194C13.4835 20.7617 13.1289 21.1163 13.1289 21.5522V33.8347C13.1289 35.0286 14.1002 35.9999 15.2941 35.9999H32.7045C33.8984 35.9999 34.8697 35.0286 34.8697 33.8347V21.5522C34.8697 21.1163 34.5152 20.7617 34.0793 20.7617ZM26.2488 32.1659H31.9448V33.5069C31.9448 33.6151 31.8568 33.7031 31.7485 33.7031H24.4058C24.5648 32.83 25.3304 32.1659 26.2488 32.1659Z" fill="#D16D63"/>
<path d="M19.3288 16.9397C19.522 16.9576 19.6941 16.8158 19.7123 16.6222C19.813 15.5546 20.306 14.5661 21.1006 13.8389C21.9002 13.1072 22.9379 12.7041 24.0227 12.7041C26.4103 12.7041 28.3527 14.6465 28.3527 17.0341C28.3527 17.9325 28.08 18.794 27.5642 19.5258C27.5613 19.5299 27.5585 19.5341 27.5557 19.5383L25.3028 23.0457C25.2663 23.1025 25.2469 23.1685 25.2469 23.236V23.6921C25.2469 23.7847 25.1716 23.86 25.0791 23.86H25.0561L25.2804 20.0542H25.6814C26.2553 20.0542 26.7222 19.5873 26.7222 19.0135V18.9707C26.7222 18.3969 26.2553 17.93 25.6814 17.93C25.1312 17.93 24.6749 18.3603 24.6425 18.9095L24.6165 19.3501H23.3819L23.356 18.9095C23.3236 18.3603 22.8672 17.93 22.317 17.93C21.7431 17.93 21.2762 18.3969 21.2762 18.9707V19.0135C21.2762 19.5873 21.7431 20.0542 22.317 20.0542H22.7181L22.9422 23.8575C22.8611 23.8457 22.7985 23.7764 22.7985 23.6921V23.236C22.7985 23.1685 22.7791 23.1025 22.7427 23.0457L20.4897 19.5383C20.487 19.5341 20.4842 19.5299 20.4813 19.5258C20.1573 19.0662 19.9292 18.5555 19.8033 18.0079C19.7597 17.8184 19.5706 17.7001 19.3813 17.7436C19.1918 17.7873 19.0736 17.9761 19.1171 18.1656C19.263 18.8002 19.5269 19.3922 19.9014 19.9251L22.0945 23.3392V23.692C22.0945 24.0475 22.3086 24.3535 22.6144 24.4891V25.0845C22.6144 25.7109 23.124 26.2206 23.7505 26.2206H24.2952C24.9216 26.2206 25.4313 25.7109 25.4313 25.0845V24.4891C25.7371 24.3535 25.9512 24.0475 25.9512 23.692V23.3392L28.1443 19.9251C28.7414 19.0754 29.057 18.0758 29.057 17.034C29.0568 14.2583 26.7985 12 24.0227 12C22.7615 12 21.5549 12.4686 20.6252 13.3195C19.7016 14.1649 19.1284 15.3143 19.0114 16.5561C18.993 16.7498 19.1352 16.9215 19.3288 16.9397ZM25.3454 18.9509C25.3558 18.7733 25.5035 18.6341 25.6814 18.6341C25.8671 18.6341 26.0181 18.7851 26.0181 18.9707V19.0134C26.0181 19.199 25.8671 19.35 25.6814 19.35H25.3219L25.3454 18.9509ZM22.317 19.35C22.1314 19.35 21.9803 19.199 21.9803 19.0134V18.9707C21.9803 18.7851 22.1314 18.6341 22.317 18.6341C22.495 18.6341 22.6426 18.7733 22.6531 18.9509L22.6766 19.35H22.317ZM24.575 20.0541L24.3508 23.8599H23.6477L23.4235 20.0541H24.575ZM24.727 25.0845C24.727 25.3227 24.5332 25.5165 24.295 25.5165H23.7503C23.5121 25.5165 23.3183 25.3227 23.3183 25.0845V24.564H24.727V25.0845H24.727Z" fill="#D16D63"/>
<path d="M30.1901 14.6735C30.2726 14.6735 30.3554 14.6446 30.4222 14.586L31.1904 13.9115C31.3365 13.7833 31.3509 13.5608 31.2226 13.4147C31.0944 13.2686 30.8719 13.2541 30.7258 13.3824L29.9577 14.0568C29.8115 14.1851 29.7971 14.4076 29.9254 14.5537C29.995 14.633 30.0923 14.6735 30.1901 14.6735Z" fill="#D16D63"/>
<path d="M29.9577 16.7966L30.7258 17.4711C30.7926 17.5298 30.8755 17.5586 30.958 17.5586C31.0558 17.5586 31.1531 17.5181 31.2227 17.4388C31.351 17.2927 31.3365 17.0702 31.1904 16.942L30.4223 16.2675C30.2762 16.1391 30.0537 16.1536 29.9255 16.2998C29.7971 16.4458 29.8115 16.6682 29.9577 16.7966Z" fill="#D16D63"/>
<path d="M16.8542 13.9113L17.6223 14.5858C17.6892 14.6445 17.772 14.6733 17.8544 14.6733C17.9522 14.6733 18.0495 14.6328 18.1191 14.5535C18.2474 14.4074 18.233 14.1849 18.0869 14.0567L17.3187 13.3822C17.1726 13.2539 16.9501 13.2684 16.8219 13.4145C16.6936 13.5606 16.708 13.783 16.8542 13.9113Z" fill="#D16D63"/>
<path d="M17.0885 17.5588C17.171 17.5588 17.2538 17.5299 17.3207 17.4713L18.0888 16.7968C18.2349 16.6685 18.2494 16.446 18.1211 16.2999C17.9928 16.1539 17.7704 16.1394 17.6242 16.2676L16.8561 16.9421C16.71 17.0704 16.6955 17.2929 16.8238 17.439C16.8934 17.5183 16.9907 17.5588 17.0885 17.5588Z" fill="#D16D63"/>
<path d="M20.9065 24.2119C20.9065 24.0174 20.7488 23.8599 20.5544 23.8599H17.0864C16.892 23.8599 16.7344 24.0174 16.7344 24.2119C16.7344 24.4064 16.892 24.564 17.0864 24.564H20.5544C20.7488 24.564 20.9065 24.4064 20.9065 24.2119Z" fill="#D16D63"/>
<path d="M21.6277 25.6509H17.7232C17.5287 25.6509 17.3711 25.8085 17.3711 26.0029C17.3711 26.1974 17.5287 26.355 17.7232 26.355H21.6277C21.8221 26.355 21.9797 26.1974 21.9797 26.0029C21.9797 25.8085 21.8221 25.6509 21.6277 25.6509Z" fill="#D16D63"/>
<path d="M21.6277 27.366H17.7232C17.5287 27.366 17.3711 27.5235 17.3711 27.718C17.3711 27.9125 17.5287 28.0701 17.7232 28.0701H21.6277C21.8221 28.0701 21.9797 27.9125 21.9797 27.718C21.9797 27.5235 21.8221 27.366 21.6277 27.366Z" fill="#D16D63"/>
<path d="M21.6277 29.0813H17.7232C17.5287 29.0813 17.3711 29.2389 17.3711 29.4334C17.3711 29.6278 17.5287 29.7854 17.7232 29.7854H21.6277C21.8221 29.7854 21.9797 29.6278 21.9797 29.4334C21.9797 29.2389 21.8221 29.0813 21.6277 29.0813Z" fill="#D16D63"/>
<path d="M31.3088 24.2119C31.3088 24.0174 31.1512 23.8599 30.9568 23.8599H27.4888C27.2943 23.8599 27.1367 24.0174 27.1367 24.2119C27.1367 24.4064 27.2943 24.564 27.4888 24.564H30.9568C31.1512 24.564 31.3088 24.4064 31.3088 24.2119Z" fill="#D16D63"/>
<path d="M30.323 25.6509H26.4185C26.224 25.6509 26.0664 25.8085 26.0664 26.0029C26.0664 26.1974 26.224 26.355 26.4185 26.355H30.323C30.5174 26.355 30.6751 26.1974 30.6751 26.0029C30.6751 25.8085 30.5174 25.6509 30.323 25.6509Z" fill="#D16D63"/>
<path d="M30.323 27.366H26.4185C26.224 27.366 26.0664 27.5235 26.0664 27.718C26.0664 27.9125 26.224 28.0701 26.4185 28.0701H30.323C30.5174 28.0701 30.6751 27.9125 30.6751 27.718C30.6751 27.5235 30.5174 27.366 30.323 27.366Z" fill="#D16D63"/>
<path d="M30.323 29.0813H26.4185C26.224 29.0813 26.0664 29.2389 26.0664 29.4334C26.0664 29.6278 26.224 29.7854 26.4185 29.7854H30.323C30.5174 29.7854 30.6751 29.6278 30.6751 29.4334C30.6751 29.2389 30.5174 29.0813 30.323 29.0813Z" fill="#D16D63"/>
</svg>
