<svg width="62" height="62" viewBox="0 0 62 62" fill="none" xmlns="http://www.w3.org/2000/svg">
<g clip-path="url(#clip0_4329_660)">
<path d="M31 34.2605C30.4984 34.2605 30.0918 34.667 30.0918 35.1687V46.0671C30.0918 46.5688 30.4984 46.9753 31 46.9753C31.5016 46.9753 31.9082 46.5688 31.9082 46.0671V35.1687C31.9082 34.667 31.5016 34.2605 31 34.2605Z" fill="#692AFF"/>
<path d="M60.9102 36.0767C61.4117 36.0767 61.8184 35.6702 61.8184 35.1685V7.68288C61.8184 6.1072 60.0432 5.05805 58.6602 5.83583L58.0431 6.18289L55.1294 3.22215C54.9081 2.99752 54.5862 2.90367 54.2792 2.9739C54.1606 3.00103 52.2071 3.45646 49.3774 4.53577V0.908044C49.3774 0.607973 49.2292 0.327278 48.9815 0.15811C48.7337 -0.0109369 48.4182 -0.0467806 48.1389 0.0620827C39.6491 3.37811 35.201 8.60391 32.9645 12.4038C32.0567 13.9464 31.4301 15.378 31 16.5755C30.5699 15.378 29.9433 13.9464 29.0355 12.4038C26.799 8.60391 22.3509 3.37811 13.8611 0.0620827C13.5818 -0.0467806 13.2663 -0.011058 13.0185 0.15811C12.7708 0.327278 12.6226 0.608094 12.6226 0.908044V4.53529C9.79903 3.45864 7.84627 3.00272 7.7207 2.97402C7.41324 2.90379 7.09161 2.99752 6.8705 3.22227L3.95674 6.18301L3.33964 5.83583C1.96632 5.06362 0.181641 6.09618 0.181641 7.68288V45.8521C0.181641 46.6166 0.595539 47.3241 1.2618 47.6992L24.6732 60.8681C25.1833 61.0965 25.8234 61.2145 26.3616 61.0388C26.7405 61.6167 27.393 61.9998 28.1341 61.9998H33.8658C34.6069 61.9998 35.2594 61.6167 35.6383 61.0388C36.213 61.2216 36.7757 61.1647 37.3267 60.8681L60.7382 47.699C61.4043 47.3241 61.8182 46.6166 61.8182 45.8521V40.9809C61.8182 39.8066 60.0018 39.8066 60.0018 40.9809V45.8521C60.0018 45.9613 59.9426 46.0625 59.8476 46.116L36.436 59.2849C36.1847 59.3696 36.0344 59.2815 35.9848 59.0211V21.3546C35.9514 21.1734 35.9449 20.6974 36.1391 20.5881L59.5505 7.41913C59.8019 7.33461 59.9523 7.42252 60.0018 7.683V35.1686C60.002 35.6701 60.4085 36.0767 60.9102 36.0767ZM47.561 2.26466V5.26875C46.7031 5.63421 45.7945 6.04884 44.8542 6.51723C41.5377 8.16919 37.3896 10.7337 33.9268 14.4146C34.1113 14.0598 34.3114 13.696 34.5299 13.3251C36.5103 9.96041 40.3585 5.39481 47.561 2.26466ZM34.1685 27.496H27.8313V25.276H34.1685V27.496ZM27.8313 29.3124H34.1685V51.9228H27.8313V29.3124ZM27.8313 53.7392H34.1685V55.9593H27.8313V53.7392ZM34.1685 23.4596H27.8313V21.3545C27.8313 21.1875 27.9672 21.0517 28.1341 21.0517H33.8658C34.0327 21.0517 34.1685 21.1875 34.1685 21.3545V23.4596ZM7.79953 4.86769C9.12018 5.22019 12.971 6.35569 17.2729 8.62329C18.2752 9.1515 19.1563 7.56275 18.1199 7.01638C16.8324 6.33777 15.5905 5.75918 14.4389 5.26851V2.26466C21.6005 5.37677 25.4409 9.90737 27.4233 13.246C27.6549 13.6362 27.8661 14.0187 28.0603 14.3921C26.6343 12.8748 25.0013 11.4489 23.1651 10.1262C22.2126 9.43958 21.1506 10.9135 22.1034 11.5999C25.2393 13.859 27.7472 16.4227 29.5799 19.2356C28.5258 19.1492 27.6241 19.4962 26.7509 19.005L5.5972 7.10574L7.79953 4.86769ZM25.865 59.2825C25.7646 59.2842 25.6642 59.285 25.5637 59.285L2.15232 46.1161C2.05714 46.0626 1.99793 45.9615 1.99793 45.8521V7.68288C1.99793 7.44093 2.2653 7.31584 2.44912 7.41901L25.8605 20.5878C26.0549 20.6974 26.0484 21.1731 26.0149 21.3545V59.0211C26.0149 59.1722 25.921 59.2497 25.865 59.2825ZM34.1685 59.8807C34.1685 60.0477 34.0327 60.1834 33.8658 60.1834H28.1341C27.9672 60.1834 27.8313 60.0477 27.8313 59.8807V57.7757H34.1685V59.8807ZM35.2487 19.0048C34.3595 19.505 33.4951 19.1612 32.4212 19.2353C35.9776 13.7876 41.4807 10.2319 45.6233 8.16338C49.5456 6.20481 52.9704 5.1967 54.2005 4.86781L56.4027 7.10562L35.2487 19.0048Z" fill="#692AFF"/>
<path d="M56.0189 15.8594L39.065 25.5469C38.7822 25.7086 38.6074 26.0095 38.6074 26.3355V32.1905C38.6074 32.8758 39.3713 33.3192 39.9662 32.9791L56.9199 23.2916C57.2029 23.1299 57.3776 22.829 57.3776 22.503V16.648C57.3776 16.0119 56.6458 15.5009 56.0189 15.8594ZM55.5612 21.9759L40.4238 30.6254V26.8625L55.5612 18.2129V21.9759Z" fill="#692AFF"/>
</g>
<defs>
<clipPath id="clip0_4329_660">
<rect width="62" height="62" fill="white"/>
</clipPath>
</defs>
</svg>
