<svg width="48" height="48" viewBox="0 0 48 48" fill="none" xmlns="http://www.w3.org/2000/svg">
<circle cx="24" cy="24" r="24" fill="#E8F3FF"/>
<g clip-path="url(#clip0_4329_585)">
<path d="M22.6875 18.375C22.5762 18.375 22.4675 18.408 22.375 18.4698C22.2825 18.5316 22.2104 18.6195 22.1678 18.7222C22.1252 18.825 22.1141 18.9381 22.1358 19.0472C22.1575 19.1564 22.2111 19.2566 22.2898 19.3352C22.3684 19.4139 22.4686 19.4675 22.5778 19.4892C22.6869 19.5109 22.8 19.4998 22.9028 19.4572C23.0055 19.4146 23.0934 19.3425 23.1552 19.25C23.217 19.1575 23.25 19.0488 23.25 18.9375C23.2498 18.7884 23.1905 18.6454 23.0851 18.5399C22.9796 18.4345 22.8366 18.3752 22.6875 18.375Z" fill="#2383EE"/>
<path d="M26.0625 18.375C25.9512 18.375 25.8425 18.408 25.75 18.4698C25.6575 18.5316 25.5854 18.6195 25.5428 18.7222C25.5002 18.825 25.4891 18.9381 25.5108 19.0472C25.5325 19.1564 25.5861 19.2566 25.6648 19.3352C25.7434 19.4139 25.8436 19.4675 25.9528 19.4892C26.0619 19.5109 26.175 19.4998 26.2778 19.4572C26.3805 19.4146 26.4684 19.3425 26.5302 19.25C26.592 19.1575 26.625 19.0488 26.625 18.9375C26.6248 18.7884 26.5655 18.6454 26.4601 18.5399C26.3546 18.4345 26.2116 18.3752 26.0625 18.375Z" fill="#2383EE"/>
<path d="M24.375 20.625C24.2756 20.6249 24.1803 20.5853 24.11 20.515C24.0397 20.4447 24.0001 20.3494 24 20.25H23.25C23.25 20.5484 23.3685 20.8345 23.5795 21.0455C23.7905 21.2565 24.0766 21.375 24.375 21.375C24.6734 21.375 24.9595 21.2565 25.1705 21.0455C25.3815 20.8345 25.5 20.5484 25.5 20.25H24.75C24.7499 20.3494 24.7103 20.4447 24.64 20.515C24.5697 20.5853 24.4744 20.6249 24.375 20.625Z" fill="#2383EE"/>
<path d="M35.1174 26.3391C35.0758 26.3039 35.0271 26.2782 34.9746 26.2637C34.9221 26.2492 34.8671 26.2463 34.8134 26.2552L31.423 26.8203C31.2 26.8573 30.9864 26.9382 30.7949 27.0584L30.5365 26.4059C30.4345 26.1439 30.289 25.901 30.1062 25.6874L30.204 24.8007C30.2291 24.5747 30.2423 24.3476 30.2436 24.1202C30.243 23.2892 30.0732 22.4671 29.7446 21.7039C29.4222 20.9483 29.2759 20.1292 29.3169 19.3086L29.3806 18.0106C29.3845 17.9288 29.3886 17.8442 29.3886 17.7602C29.3866 16.4315 28.8577 15.1577 27.9178 14.2184C26.9779 13.2791 25.7038 12.7511 24.375 12.75C23.6959 12.7501 23.0239 12.8882 22.3998 13.156C21.7757 13.4237 21.2125 13.8154 20.7444 14.3074C20.2762 14.7993 19.913 15.3813 19.6766 16.0179C19.4402 16.6546 19.3356 17.3326 19.3692 18.0109L19.4328 19.3046C19.4365 19.4012 19.44 19.4925 19.44 19.5827C19.4413 20.312 19.2934 21.0338 19.0053 21.7038C18.5862 22.6796 18.4279 23.7476 18.546 24.8031L18.6435 25.6776C18.53 25.8102 18.4305 25.9541 18.3465 26.107L17.8346 24.8273C17.7793 24.689 17.6967 24.5633 17.5916 24.4578C17.4865 24.3522 17.3611 24.269 17.223 24.2132C17.0849 24.1573 16.937 24.13 16.788 24.1328C16.6391 24.1356 16.4923 24.1685 16.3564 24.2295C16.2205 24.2905 16.0984 24.3784 15.9973 24.4879C15.8963 24.5973 15.8184 24.7261 15.7684 24.8664C15.7185 25.0067 15.6974 25.1557 15.7064 25.3043C15.7155 25.453 15.7545 25.5983 15.8212 25.7315L15.8933 25.875H15.1561C14.8651 25.8747 14.5781 25.8069 14.3176 25.677L13.944 25.4902C13.8182 25.4273 13.6784 25.3976 13.5379 25.4039C13.3974 25.4103 13.2609 25.4524 13.1413 25.5263C13.0217 25.6003 12.9229 25.7035 12.8544 25.8264C12.786 25.9492 12.75 26.0875 12.75 26.2281V27.2865C12.7493 27.4955 12.8072 27.7006 12.9171 27.8785C13.027 28.0563 13.1846 28.1998 13.3719 28.2927L13.9823 28.5979C14.3469 28.7797 14.7487 28.8745 15.1561 28.875H15.375V29.9855L15.1056 33.4875C15.0883 33.7124 15.1177 33.9384 15.1919 34.1514C15.2661 34.3644 15.3835 34.5598 15.5368 34.7253C15.69 34.8908 15.8758 35.0228 16.0825 35.1131C16.2892 35.2034 16.5123 35.25 16.7379 35.25C16.7656 35.25 16.7932 35.2493 16.8207 35.2479C16.8446 35.249 16.8684 35.25 16.8922 35.25C17.2017 35.25 17.5037 35.1549 17.7574 34.9776C18.011 34.8002 18.204 34.5492 18.3102 34.2585L20.022 31.0757C20.124 31.5501 20.3299 31.996 20.625 32.3812V35.25H21.375V32.25C21.375 32.1623 21.3443 32.0773 21.2881 32.01C20.8552 31.4893 20.6466 30.8182 20.7079 30.1439C20.7692 29.4696 21.0954 28.8471 21.6151 28.4131L21.1349 27.8369C20.964 27.9794 20.8079 28.1387 20.669 28.3125C20.6549 28.3271 20.6419 28.3428 20.6303 28.3594L20.6294 28.3589L20.6228 28.3706C20.6211 28.3732 20.6197 28.3761 20.6181 28.3788C20.4085 28.6549 20.2439 28.9625 20.1306 29.2902L18.375 32.5547V27.9988L18.9079 26.6719C18.9971 26.4455 19.1314 26.2396 19.3025 26.0666C19.4782 25.8881 19.6875 25.7461 19.9184 25.6489C20.1492 25.5516 20.397 25.501 20.6475 25.5H21.9024L24.0458 29.4296C24.0781 29.4887 24.1257 29.5381 24.1836 29.5725C24.2415 29.6068 24.3076 29.625 24.375 29.625C24.4424 29.625 24.5085 29.6068 24.5664 29.5725C24.6244 29.5381 24.6719 29.4887 24.7042 29.4296L25.5 27.9706V33C25.5 33.0867 25.53 33.1707 25.585 33.2378C25.64 33.3048 25.7165 33.3507 25.8015 33.3677L27.375 33.6825V35.25H28.125V33.8324L29.5598 34.119C29.5691 34.1206 29.6126 34.125 29.625 34.125H30.3345L30.4065 34.2592C30.5143 34.5498 30.7085 34.8006 30.9629 34.9777C31.2174 35.1548 31.52 35.2498 31.83 35.25C31.9128 35.2505 31.9955 35.2436 32.0772 35.2296C32.3419 35.1846 32.59 35.0703 32.7961 34.8983C33.0023 34.7263 33.1593 34.5027 33.251 34.2504L34.2483 34.0842C34.417 34.0565 34.5711 33.9717 34.6849 33.844C34.7986 33.7164 34.8651 33.5536 34.8733 33.3828L34.9483 33.3677C35.0333 33.3508 35.1099 33.3049 35.1649 33.2378C35.2199 33.1708 35.25 33.0867 35.25 33V26.625C35.25 26.5706 35.2381 26.5168 35.2152 26.4674C35.1923 26.418 35.1589 26.3742 35.1174 26.3391ZM22.7143 25.4224C22.8735 25.3518 23.0089 25.2366 23.104 25.0906C23.1991 24.9446 23.2498 24.7742 23.25 24.6V23.4524C23.9823 23.6825 24.7677 23.6825 25.5 23.4524V24.6C25.5002 24.7742 25.551 24.9445 25.646 25.0905C25.7411 25.2364 25.8765 25.3516 26.0357 25.4222L25.5844 26.25H23.1656L22.7143 25.4224ZM24.375 22.875C23.5796 22.8741 22.8171 22.5577 22.2547 21.9953C21.6923 21.4329 21.3759 20.6704 21.375 19.875V18.1961C22.0502 17.7083 22.6053 17.0728 22.998 16.3381C24.2681 17.3548 25.7731 18.0361 27.375 18.3197V19.875C27.3741 20.6704 27.0578 21.4329 26.4953 21.9953C25.9329 22.5577 25.1704 22.8741 24.375 22.875ZM29.4429 26.073L29.4498 26.0802C29.6198 26.2512 29.7523 26.4557 29.8389 26.6806L30 27.0874C29.7974 26.9512 29.5679 26.8601 29.327 26.8202L26.3942 26.3314L26.8476 25.5H28.0988C28.3499 25.4997 28.5985 25.5503 28.8295 25.6488C29.0606 25.7473 29.2692 25.8916 29.4429 26.073ZM29.6621 28.125L27.9559 27.7838L26.2496 27.4425V27.0675L29.2033 27.5597C29.3613 27.5856 29.5103 27.651 29.6362 27.7498C29.7622 27.8486 29.8612 27.9777 29.9239 28.125H29.6621ZM31.5465 27.56L34.5 27.0676V27.4426L32.7362 27.7954L31.0879 28.125H30.8261C30.8889 27.9778 30.9878 27.8488 31.1137 27.75C31.2396 27.6512 31.3884 27.5858 31.5464 27.56H31.5465ZM14.3176 27.927L13.7073 27.6219C13.6449 27.5909 13.5923 27.5431 13.5557 27.4838C13.5191 27.4245 13.4998 27.3561 13.5 27.2865V26.2281C13.4997 26.2153 13.5028 26.2026 13.5091 26.1914C13.5153 26.1801 13.5245 26.1708 13.5356 26.1643C13.5463 26.1573 13.5588 26.1532 13.5716 26.1527C13.5844 26.1521 13.5972 26.155 13.6085 26.161L13.9823 26.3479C14.3469 26.5297 14.7487 26.6245 15.1561 26.625H16.5C16.5639 26.625 16.6268 26.6087 16.6826 26.5775C16.7384 26.5464 16.7854 26.5015 16.819 26.4471C16.8526 26.3928 16.8717 26.3307 16.8746 26.2668C16.8775 26.203 16.864 26.1395 16.8354 26.0823L16.4921 25.3957C16.4684 25.3482 16.4556 25.296 16.4547 25.2429C16.4539 25.1898 16.4649 25.1373 16.4871 25.089C16.5093 25.0408 16.542 24.9982 16.5829 24.9643C16.6237 24.9304 16.6717 24.9062 16.7232 24.8933C16.8063 24.8728 16.8941 24.883 16.9703 24.9219C17.0466 24.9609 17.1062 25.0261 17.1383 25.1055L17.625 26.3222V28.125H15.1561C14.8651 28.1247 14.5781 28.0569 14.3176 27.927ZM17.625 28.875V29.625H16.125V28.875H17.625ZM15.8535 33.5449L16.0973 30.375H17.625V33.6129C17.6247 33.8369 17.5397 34.0524 17.387 34.2163C17.2344 34.3803 17.0255 34.4804 16.8021 34.4968C16.788 34.4967 16.7739 34.4974 16.7599 34.4989C16.7525 34.4989 16.7454 34.5 16.7379 34.5C16.6157 34.5 16.4948 34.4748 16.3827 34.4258C16.2707 34.3769 16.1701 34.3054 16.087 34.2157C16.004 34.126 15.9403 34.0201 15.9002 33.9047C15.86 33.7892 15.8441 33.6667 15.8535 33.5449ZM20.631 28.3598C20.6385 28.3498 20.6464 28.3401 20.6549 28.3309C20.6472 28.3407 20.6397 28.3506 20.6321 28.3605L20.631 28.3598ZM19.3344 25.1043L19.2914 24.7189C19.1878 23.7927 19.3267 22.8555 19.6945 21.9992C20.0228 21.2359 20.1914 20.4134 20.19 19.5825C20.19 19.4777 20.1861 19.375 20.182 19.2716L20.1183 17.9739C20.0901 17.406 20.1758 16.8382 20.3703 16.3039C20.5649 15.7696 20.8643 15.2796 21.2511 14.8628C21.6379 14.446 22.1041 14.1108 22.6224 13.8769C23.1407 13.643 23.7005 13.5152 24.2689 13.5009C24.8373 13.4866 25.4029 13.5862 25.9322 13.7938C26.4616 14.0014 26.9441 14.3128 27.3513 14.7097C27.7585 15.1066 28.0821 15.5809 28.3033 16.1047C28.5244 16.6286 28.6384 17.1914 28.6388 17.76C28.6388 17.8261 28.6353 17.8982 28.6317 17.9741L28.568 19.2707C28.5215 20.2051 28.688 21.1379 29.0551 21.9984C29.3438 22.6685 29.4931 23.3904 29.4938 24.12C29.4925 24.3205 29.4807 24.5208 29.4585 24.72L29.4159 25.1064C29.016 24.8735 28.5616 24.7505 28.0988 24.75H26.4C26.3604 24.7495 26.3225 24.7335 26.2945 24.7055C26.2665 24.6775 26.2505 24.6396 26.25 24.6V23.1205C26.8197 22.7914 27.2928 22.3184 27.6219 21.7487C27.951 21.1791 28.1245 20.5329 28.125 19.875V18C28.125 17.9097 28.0924 17.8225 28.0333 17.7543C27.9742 17.6861 27.8924 17.6415 27.803 17.6287C26.1557 17.3938 24.6062 16.705 23.3281 15.6394L23.1151 15.4619C23.0717 15.4257 23.0206 15.3998 22.9657 15.3861C22.9109 15.3724 22.8536 15.3714 22.7982 15.3829C22.7429 15.3945 22.6909 15.4185 22.6461 15.453C22.6013 15.4875 22.5649 15.5317 22.5396 15.5823L22.3943 15.8729C22.0269 16.6068 21.4747 17.2324 20.792 17.688C20.7406 17.7222 20.6985 17.7686 20.6694 17.823C20.6402 17.8775 20.625 17.9383 20.625 18V19.875C20.6255 20.5329 20.799 21.1791 21.1281 21.7487C21.4572 22.3184 21.9303 22.7914 22.5 23.1205V24.6C22.4995 24.6396 22.4835 24.6775 22.4555 24.7055C22.4275 24.7335 22.3896 24.7495 22.35 24.75H20.6475C20.1864 24.7515 19.7336 24.8736 19.3344 25.1043ZM24.375 28.4669L23.5749 27H25.1751L24.375 28.4669ZM26.25 28.2075L29.25 28.8075V33.2925L26.25 32.6925V28.2075ZM30 28.875H30.75V33.375H30V28.875ZM31.9485 34.4906C31.9094 34.4973 31.8697 34.5004 31.83 34.5C31.6965 34.4999 31.5653 34.465 31.4494 34.3987C31.3335 34.3324 31.2369 34.2371 31.1691 34.1221C31.1761 34.1213 31.1831 34.1202 31.1901 34.119C31.1929 34.1184 31.1956 34.1182 31.1984 34.1177H31.199L31.2016 34.1172L31.9725 33.963C32.0563 34.1132 32.1898 34.2295 32.3501 34.2919C32.2385 34.3959 32.0989 34.465 31.9485 34.4906ZM34.125 33.3443L32.625 33.5944V32.2005C32.625 32.1737 32.6344 32.1478 32.6518 32.1274C32.6691 32.1069 32.6931 32.0933 32.7196 32.0889L33.9933 31.8766C33.9996 31.8756 34.0061 31.875 34.0125 31.875C34.0424 31.8752 34.071 31.8872 34.0921 31.9084C34.1132 31.9297 34.125 31.9583 34.125 31.9882L34.1253 33.3442L34.125 33.3443ZM33.8699 31.1369L32.5962 31.3491C32.3945 31.3822 32.2111 31.4861 32.0789 31.6421C31.9467 31.7981 31.8745 31.9961 31.875 32.2005V33.2177L31.5 33.2927V28.8075L34.5 28.2075V31.2768C34.3161 31.1502 34.0901 31.1 33.8699 31.1369Z" fill="#2383EE"/>
</g>
<defs>
<clipPath id="clip0_4329_585">
<rect width="24" height="24" fill="white" transform="translate(12 12)"/>
</clipPath>
</defs>
</svg>
