<svg width="62" height="62" viewBox="0 0 62 62" fill="none" xmlns="http://www.w3.org/2000/svg">
<path d="M43.8787 45.3248C43.3752 45.3248 42.967 45.7326 42.967 46.2366V56.4717C42.967 57.2962 42.2956 57.9676 41.4707 57.9676H5.1421C4.31715 57.9676 3.64579 57.2962 3.64579 56.4717V5.52863C3.64579 4.70412 4.31715 4.03276 5.1421 4.03276H32.6682V11.5406C32.6682 12.5877 33.5199 13.4389 34.5665 13.4389H42.967V19.6307C42.967 20.1347 43.3752 20.5425 43.8787 20.5425C44.3823 20.5425 44.7905 20.1347 44.7905 19.6307V12.528C44.7905 12.3386 44.6869 12.042 44.5022 11.8669C44.4099 11.7794 34.2878 2.52604 34.1961 2.44786C34.1958 2.44764 34.1954 2.44741 34.195 2.44719C34.0325 2.299 33.7645 2.20923 33.5813 2.20923H5.1421C3.31145 2.20923 1.82227 3.69797 1.82227 5.52863V56.4717C1.82227 58.3024 3.31145 59.7911 5.1421 59.7911H41.4707C43.3013 59.7911 44.7905 58.3024 44.7905 56.4717V46.2366C44.7905 45.7326 44.3823 45.3248 43.8787 45.3248ZM34.5665 11.6154C34.5251 11.6154 34.4918 11.5815 34.4918 11.5406V5.18783C35.3487 5.97077 40.9815 11.1168 41.5272 11.6154H34.5665Z" fill="#692AFF"/>
<path d="M7.26333 10.7461H23.2468C23.7503 10.7461 24.1586 10.3383 24.1586 9.83437C24.1586 9.33041 23.7503 8.92261 23.2468 8.92261H7.26333C6.75981 8.92261 6.35156 9.33041 6.35156 9.83437C6.35156 10.3383 6.75981 10.7461 7.26333 10.7461Z" fill="#692AFF"/>
<path d="M39.6408 18.3012C39.6408 17.7972 39.2325 17.3894 38.729 17.3894H7.26333C6.75981 17.3894 6.35156 17.7972 6.35156 18.3012C6.35156 18.8051 6.75981 19.2129 7.26333 19.2129H38.729C39.2325 19.2129 39.6408 18.8051 39.6408 18.3012Z" fill="#692AFF"/>
<path d="M23.2468 25.8545H7.26333C6.75981 25.8545 6.35156 26.2623 6.35156 26.7663C6.35156 27.2702 6.75981 27.678 7.26333 27.678H23.2468C23.7503 27.678 24.1586 27.2702 24.1586 26.7663C24.1586 26.2623 23.7503 25.8545 23.2468 25.8545Z" fill="#692AFF"/>
<path d="M7.26333 36.1441H23.2468C23.7503 36.1441 24.1586 35.7363 24.1586 35.2323C24.1586 34.7284 23.7503 34.3206 23.2468 34.3206H7.26333C6.75981 34.3206 6.35156 34.7284 6.35156 35.2323C6.35156 35.7363 6.75981 36.1441 7.26333 36.1441Z" fill="#692AFF"/>
<path d="M26.8151 42.7871H7.26333C6.75981 42.7871 6.35156 43.1949 6.35156 43.6989C6.35156 44.2028 6.75981 44.6106 7.26333 44.6106H26.8151C27.3186 44.6106 27.7268 44.2028 27.7268 43.6989C27.7268 43.1949 27.3186 42.7871 26.8151 42.7871Z" fill="#692AFF"/>
<path d="M6.35156 52.1642C6.35156 52.6682 6.75981 53.076 7.26333 53.076H38.729C39.2325 53.076 39.6408 52.6682 39.6408 52.1642C39.6408 51.6602 39.2325 51.2524 38.729 51.2524H7.26333C6.75981 51.2524 6.35156 51.6602 6.35156 52.1642Z" fill="#692AFF"/>
<path d="M35.255 24.2114C31.1826 25.0787 28.4408 28.5936 28.2395 32.4253C28.2133 32.9284 28.5993 33.3575 29.1023 33.3842C29.1184 33.3851 29.1348 33.3851 29.1509 33.3851C29.6326 33.3851 30.035 33.0076 30.0604 32.5214C30.222 29.4418 32.4387 26.6753 35.6343 25.9957C36.1267 25.8907 36.4414 25.4063 36.3364 24.9139C36.2313 24.4215 35.7487 24.1054 35.255 24.2114Z" fill="#692AFF"/>
<path d="M58.6396 44.4534L56.8646 43.0404C56.4702 42.7279 55.8968 42.792 55.5833 43.1855C55.2695 43.58 55.3349 44.1534 55.7285 44.4668L57.5035 45.8798C58.4743 46.6521 58.6366 48.0668 57.8619 49.039C57.0813 50.0191 55.6696 50.1658 54.7027 49.3978L48.502 44.4606L51.3028 40.9426L52.674 42.0342C53.0675 42.3486 53.6418 42.2836 53.9553 41.8891C54.2691 41.4947 54.2041 40.9212 53.8101 40.6078L51.7257 38.9481C51.3266 38.6296 50.7537 38.7053 50.4444 39.0933L50.3352 39.2304L48.6584 37.895C50.9129 32.6895 49.4388 26.6784 44.9543 23.1178C41.9835 20.7691 38.1533 19.9007 34.5064 20.6924C24.2618 22.8718 21.0547 36.1368 29.3532 42.7305C33.9552 46.393 40.5594 46.3206 45.0598 42.6608L46.6166 43.9006L46.5076 44.0376C46.1937 44.4321 46.2587 45.0055 46.6527 45.3189L53.5666 50.8242C55.3189 52.2187 57.8814 51.9437 59.2883 50.1751C60.6903 48.4156 60.4002 45.8556 58.6396 44.4534ZM30.488 41.3032C23.3766 35.6524 26.1736 24.33 34.8901 22.4749C38.1005 21.7767 41.369 22.602 43.8328 24.5558C48.2953 28.0985 49.2044 34.4529 45.9075 39.1019L45.5772 39.5507C40.7859 44.7366 34.609 44.5828 30.488 41.3032ZM47.393 40.1599C47.3935 40.1593 47.394 40.1584 47.3945 40.1577L47.3962 40.1555C47.3981 40.1528 47.3997 40.1499 47.4015 40.1473C47.5408 39.95 47.6748 39.7496 47.8026 39.5447L49.197 40.655L47.7505 42.4723L46.398 41.3949C46.8858 40.8621 47.1757 40.4673 47.393 40.1599Z" fill="#692AFF"/>
</svg>
