<svg width="48" height="48" viewBox="0 0 48 48" fill="none" xmlns="http://www.w3.org/2000/svg">
<circle cx="24" cy="24" r="24" fill="#EDE7FB"/>
<g clip-path="url(#clip0_4329_571)">
<g clip-path="url(#clip1_4329_571)">
<path d="M19.8456 26.7692C19.9435 26.8101 20.0537 26.8103 20.1518 26.77C20.2499 26.7296 20.328 26.6519 20.3688 26.554L20.9328 25.2H23.0664L23.6304 26.554C23.7154 26.7579 23.9497 26.8543 24.1536 26.7692C24.3575 26.6842 24.4539 26.4499 24.3688 26.246L22.3688 21.446C22.3067 21.297 22.1611 21.2 21.9996 21.2C21.8382 21.2 21.6926 21.297 21.6305 21.446L19.6305 26.246C19.5896 26.3439 19.5893 26.4541 19.6297 26.5522C19.67 26.6503 19.7477 26.7284 19.8456 26.7692ZM21.9996 22.64L22.7328 24.4H21.2664L21.9996 22.64Z" fill="#845FE0"/>
<path fill-rule="evenodd" clip-rule="evenodd" d="M25.2008 26C24.9799 26 24.8008 26.179 24.8008 26.4C24.8008 26.6209 24.9799 26.8 25.2008 26.8H27.6008C27.8217 26.8 28.0008 26.6209 28.0008 26.4C28.0008 26.179 27.8217 26 27.6008 26H26.8008V22H27.6008C27.8217 22 28.0008 21.8209 28.0008 21.6C28.0008 21.379 27.8217 21.2 27.6008 21.2H25.2008C24.9799 21.2 24.8008 21.379 24.8008 21.6C24.8008 21.8209 24.9799 22 25.2008 22H26.0008V26H25.2008Z" fill="#845FE0"/>
<path d="M12.3994 29.6C12.3994 30.4837 13.1157 31.2 13.9994 31.2C14.1998 31.1992 14.3982 31.1604 14.5842 31.0856C15.5298 31.8096 16.8642 32.1872 18.5042 32.1872C18.7513 32.1872 19.0082 32.1756 19.2685 32.1588C20.4301 34.5324 22.1062 36 23.9993 36C25.8925 36 27.5685 34.5324 28.7305 32.16C28.9913 32.1768 29.2477 32.1884 29.4949 32.1884C31.1349 32.1884 32.4693 31.8108 33.4149 31.0868C33.6008 31.1611 33.7991 31.1996 33.9993 31.2C34.7055 31.198 35.3269 30.7332 35.5283 30.0563C35.7297 29.3794 35.4635 28.6506 34.8733 28.2628C34.9293 26.9748 34.4313 25.5132 33.4177 24C34.4313 22.4872 34.9293 21.0256 34.8733 19.7372C35.5648 19.2909 35.8038 18.392 35.4251 17.6613C35.0464 16.9306 34.1742 16.6075 33.4109 16.9152C32.3241 16.0836 30.7193 15.7152 28.7309 15.8448C27.5702 13.4692 25.8934 12 23.9994 12C22.1054 12 20.4286 13.4692 19.2666 15.8448C17.279 15.716 15.675 16.0848 14.5866 16.9152C13.8237 16.61 12.9538 16.9336 12.5757 17.6631C12.1977 18.3926 12.435 19.2899 13.1242 19.7372C13.069 21.0248 13.5673 22.4864 14.581 24C13.5673 25.5132 13.069 26.9748 13.1254 28.2628C12.673 28.5573 12.3999 29.0602 12.3994 29.6ZM13.1994 29.6C13.1994 29.1582 13.5575 28.8 13.9994 28.8C14.4413 28.8 14.7994 29.1581 14.7994 29.6C14.7994 30.0419 14.4413 30.4 13.9994 30.4C13.7872 30.4 13.5837 30.3157 13.4337 30.1657C13.2837 30.0157 13.1994 29.8122 13.1994 29.6ZM19.763 16.688C20.8279 16.8155 21.877 17.051 22.8942 17.3908C22.1782 17.7104 21.479 18.0663 20.7994 18.4572C20.1174 18.8509 19.4567 19.2804 18.8202 19.744C19.0299 18.696 19.3458 17.672 19.763 16.688ZM29.1782 19.744C28.5419 19.2804 27.8813 18.8508 27.1994 18.4572C26.5207 18.0668 25.8227 17.7108 25.1082 17.3908C26.1243 17.0512 27.1724 16.8157 28.2362 16.688C28.6531 17.6721 28.9687 18.696 29.1782 19.744ZM28.2358 31.312C27.1709 31.1845 26.1218 30.949 25.1046 30.6092C25.8205 30.2897 26.5197 29.9338 27.1994 29.5428C27.8814 29.1492 28.542 28.7196 29.1786 28.256C28.9689 29.304 28.653 30.328 28.2358 31.312ZM26.7994 19.1504C27.7014 19.6695 28.5638 20.2547 29.3794 20.9012C29.5265 21.9276 29.6 22.9632 29.5994 24C29.6001 25.0369 29.5267 26.0724 29.3798 27.0988C28.564 27.7453 27.7015 28.3305 26.7994 28.8496C25.9001 29.3697 24.9643 29.824 23.9994 30.2088C23.0344 29.8238 22.0986 29.3693 21.1994 28.8488C20.2973 28.3297 19.435 27.7445 18.6194 27.098C18.3266 25.0425 18.3266 22.9559 18.6194 20.9004C19.435 20.2542 20.2974 19.6693 21.1994 19.1504C22.0994 18.6299 23.036 18.1753 24.0018 17.7904C24.966 18.1755 25.901 18.6301 26.7994 19.1504ZM30.2794 21.6572C31.0772 22.3635 31.8018 23.1484 32.4422 24C31.8027 24.8515 31.079 25.6364 30.2822 26.3428C30.3608 25.5644 30.3999 24.7824 30.3994 24C30.3997 23.2176 30.3603 22.4357 30.2814 21.6572H30.2794ZM17.7194 26.3428C16.9214 25.6367 16.1967 24.8518 15.5566 24C16.1961 23.1486 16.9197 22.3637 17.7165 21.6572C17.5592 23.2151 17.5592 24.7849 17.7165 26.3428H17.7194ZM20.8018 29.5428C21.4804 29.9333 22.1784 30.2892 22.893 30.6092C21.8768 30.9489 20.8288 31.1843 19.765 31.312C19.3479 30.328 19.0321 29.304 18.8226 28.256C19.4583 28.7196 20.1181 29.1492 20.7994 29.5428H20.8018ZM23.9994 35.2C22.497 35.2 21.1318 34.0084 20.125 32.0756C21.4507 31.8877 22.7505 31.5489 23.9994 31.066C25.2487 31.5492 26.5491 31.8879 27.8754 32.0756C26.8666 34.0084 25.5018 35.2 23.9994 35.2ZM33.9994 30.4C33.5576 30.4 33.1994 30.0419 33.1994 29.6C33.1994 29.1581 33.5576 28.8 33.9994 28.8C34.4413 28.8 34.7994 29.1581 34.7994 29.6C34.7994 30.0419 34.4412 30.4 33.9994 30.4ZM34.0834 28.0084C34.055 28.0084 34.0282 28 33.9994 28C33.1157 28 32.3994 28.7164 32.3994 29.6C32.4009 29.9577 32.5234 30.3044 32.747 30.5836C31.8758 31.1584 30.6042 31.4316 29.081 31.3744C29.5769 30.1354 29.9284 28.8434 30.1286 27.524C31.1632 26.6909 32.0995 25.7426 32.9194 24.6976C33.5948 25.6782 33.9966 26.821 34.0834 28.0084ZM34.7994 18.4C34.7994 18.8418 34.4412 19.2 33.9994 19.2C33.5575 19.2 33.1994 18.8419 33.1994 18.4C33.1994 17.9581 33.5575 17.6 33.9994 17.6C34.4412 17.6 34.7994 17.9582 34.7994 18.4ZM32.747 17.4164C32.5234 17.6956 32.4009 18.0423 32.3994 18.4C32.3994 19.2837 33.1157 20 33.9994 20C34.0282 20 34.055 19.9932 34.0834 19.9916C33.9967 21.1791 33.5949 22.3219 32.9194 23.3024C32.0993 22.2573 31.1629 21.3091 30.1282 20.476C29.9278 19.1565 29.5758 17.8645 29.0794 16.6256C30.6038 16.568 31.8762 16.84 32.747 17.4164ZM23.9994 12.8C25.5018 12.8 26.867 13.9916 27.8738 15.9244C26.5488 16.1125 25.2496 16.4512 24.0014 16.934C22.7521 16.4509 21.4516 16.1121 20.1254 15.9244C21.1322 13.9916 22.497 12.8 23.9994 12.8ZM13.9994 17.6C14.4412 17.6 14.7994 17.9582 14.7994 18.4C14.7994 18.8419 14.4412 19.2001 13.9994 19.2001C13.5575 19.2001 13.1993 18.8419 13.1993 18.4C13.1993 17.9582 13.5575 17.6 13.9994 17.6ZM13.9154 19.9916C13.9438 19.9916 13.9706 20 13.9994 20C14.8831 20 15.5994 19.2836 15.5994 18.4C15.5979 18.0423 15.4754 17.6956 15.2518 17.4164C16.1226 16.8416 17.3942 16.5688 18.9178 16.6256C18.4219 17.8646 18.0703 19.1566 17.8702 20.476C16.8357 21.3091 15.8994 22.2572 15.0794 23.302C14.4038 22.3217 14.002 21.179 13.9154 19.9916ZM15.0794 24.698C15.8998 25.7428 16.8363 26.6909 17.871 27.524C18.0714 28.8436 18.4231 30.1357 18.9194 31.3748C17.397 31.4324 16.1246 31.1584 15.2534 30.5836C15.4764 30.3042 15.5983 29.9575 15.5994 29.6C15.5994 28.7163 14.883 28 13.9994 28C13.9706 28 13.9438 28.0072 13.9154 28.0084C14.0021 26.8211 14.4039 25.6783 15.0794 24.698Z" fill="#845FE0"/>
</g>
</g>
<defs>
<clipPath id="clip0_4329_571">
<rect width="24" height="24" fill="white" transform="translate(12 12)"/>
</clipPath>
<clipPath id="clip1_4329_571">
<rect width="24" height="24" fill="white" transform="translate(12 12)"/>
</clipPath>
</defs>
</svg>
