<svg width="262" height="67" viewBox="0 0 262 67" fill="none" xmlns="http://www.w3.org/2000/svg">
<path d="M73.3071 42.4432H69.8438V23.3268H77.5174C79.6453 23.3268 81.2977 23.8588 82.4748 24.9227C83.6519 25.9866 84.2404 27.5938 84.2404 29.7442C84.2404 31.623 83.6292 33.0944 82.4069 34.1583C81.2072 35.2222 79.5773 35.7542 77.5174 35.7542H73.3071V42.4432ZM77.0421 26.1451H73.3071V33.2076H77.0421C78.2644 33.2076 79.2491 32.9133 79.9961 32.3248C80.7431 31.7362 81.1166 30.8534 81.1166 29.6763C81.1166 28.4766 80.7431 27.5938 79.9961 27.0279C79.2718 26.4393 78.2871 26.1451 77.0421 26.1451Z" fill="black"/>
<path d="M91.5422 42.7827C89.6181 42.7827 88.2486 42.1263 87.4337 40.8134C86.6188 39.5005 86.2114 37.7801 86.2114 35.6523C86.2114 33.5019 86.6188 31.7702 87.4337 30.4573C88.2713 29.1217 89.6408 28.454 91.5422 28.454C92.6287 28.454 93.4889 28.6464 94.1227 29.0312C94.7566 29.3934 95.2319 29.8008 95.5488 30.2535C95.8657 30.7063 96.0581 31.0458 96.1261 31.2722H96.194V28.4879H99.7592V42.4432H96.7712L96.194 40.1682H96.1261C96.0581 40.372 95.8544 40.6889 95.5149 41.119C95.198 41.5264 94.7113 41.9112 94.0548 42.2734C93.421 42.6129 92.5835 42.7827 91.5422 42.7827ZM92.9683 39.8626C94.2359 39.8626 95.0848 39.4665 95.5149 38.6742C95.9676 37.8593 96.194 36.8633 96.194 35.6863C96.194 34.4413 95.9676 33.4339 95.5149 32.6643C95.0621 31.8947 94.2133 31.5099 92.9683 31.5099C92.0855 31.5099 91.3951 31.7023 90.8971 32.0871C90.4217 32.4719 90.0822 32.9812 89.8784 33.615C89.6973 34.2262 89.6068 34.9166 89.6068 35.6863C89.6068 36.4559 89.6973 37.1576 89.8784 37.7914C90.0822 38.4252 90.4217 38.9346 90.8971 39.3194C91.3951 39.6816 92.0855 39.8626 92.9683 39.8626Z" fill="black"/>
<path d="M108.693 42.7827C108.105 42.7827 107.448 42.6809 106.724 42.4771C106.022 42.2734 105.343 41.9678 104.687 41.5604C104.053 41.1529 103.521 40.6323 103.091 39.9985C102.683 39.342 102.48 38.5724 102.48 37.6896H105.671C105.671 37.7348 105.683 37.8933 105.705 38.1649C105.728 38.4139 105.819 38.7082 105.977 39.0477C106.158 39.3646 106.452 39.6476 106.86 39.8966C107.267 40.1456 107.856 40.2701 108.626 40.2701C109.531 40.2701 110.21 40.1116 110.663 39.7947C111.116 39.4552 111.342 39.0704 111.342 38.6403C111.342 38.1423 111.127 37.7575 110.697 37.4858C110.289 37.1916 109.757 36.9539 109.101 36.7728C108.444 36.5917 107.743 36.4106 106.996 36.2295C106.271 36.0258 105.581 35.7655 104.924 35.4486C104.291 35.1317 103.77 34.7016 103.363 34.1583C102.955 33.5924 102.751 32.868 102.751 31.9852C102.751 30.695 103.272 29.7216 104.313 29.0651C105.355 28.3861 106.679 28.0465 108.286 28.0465C109.418 28.0465 110.47 28.2276 111.444 28.5898C112.417 28.9293 113.198 29.4839 113.787 30.2535C114.375 31.0005 114.669 31.9852 114.669 33.2076H111.478C111.5 32.5059 111.342 31.9852 111.002 31.6457C110.685 31.2835 110.278 31.0345 109.78 30.8987C109.305 30.7629 108.841 30.695 108.388 30.695C107.573 30.695 106.95 30.8421 106.52 31.1364C106.113 31.408 105.909 31.7702 105.909 32.2229C105.909 32.7435 106.113 33.151 106.52 33.4453C106.95 33.7169 107.494 33.9433 108.15 34.1243C108.829 34.3054 109.531 34.4978 110.255 34.7016C111.002 34.8827 111.704 35.1317 112.361 35.4486C113.04 35.7655 113.583 36.1956 113.99 36.7388C114.42 37.2595 114.635 37.9612 114.635 38.844C114.635 40.1796 114.081 41.1755 112.972 41.832C111.885 42.4658 110.459 42.7827 108.693 42.7827Z" fill="black"/>
<path d="M122.175 42.4432C121.065 42.4432 120.228 42.1715 119.662 41.6283C119.119 41.085 118.847 40.2022 118.847 38.9798V30.9326H116.742V28.4879C117.398 28.4879 117.908 28.42 118.27 28.2842C118.632 28.1484 118.892 27.8315 119.051 27.3335C119.209 26.8355 119.289 26.0319 119.289 24.9227H122.073V28.4879H125.264V30.9326H122.073V39.7268H125.332V42.4432H122.175Z" fill="black"/>
<path d="M134.903 42.7827C133.295 42.7827 131.982 42.4432 130.964 41.7641C129.968 41.0624 129.221 40.1796 128.723 39.1156C128.247 38.0291 127.998 36.886 127.976 35.6863C127.953 34.2828 128.213 33.0378 128.757 31.9513C129.323 30.8421 130.115 29.9819 131.134 29.3707C132.175 28.7369 133.397 28.42 134.801 28.42C136.046 28.42 137.155 28.6916 138.128 29.2349C139.124 29.7782 139.916 30.5478 140.505 31.5438C141.094 32.5172 141.399 33.6716 141.422 35.0072C141.422 35.0524 141.422 35.1769 141.422 35.3807C141.422 35.5844 141.422 35.7542 141.422 35.89H131.269C131.269 37.1802 131.586 38.1762 132.22 38.878C132.854 39.5571 133.725 39.8966 134.835 39.8966C135.695 39.8966 136.408 39.6816 136.974 39.2515C137.562 38.8214 137.913 38.2555 138.026 37.5537H141.388C141.229 39.0251 140.596 40.2701 139.486 41.2887C138.377 42.2847 136.849 42.7827 134.903 42.7827ZM131.371 34.3281H137.958C137.936 34.1696 137.879 33.9206 137.789 33.5811C137.721 33.2415 137.574 32.8907 137.347 32.5285C137.144 32.1663 136.827 31.8607 136.396 31.6117C135.966 31.3627 135.412 31.2382 134.733 31.2382C133.827 31.2382 133.137 31.4306 132.662 31.8154C132.209 32.1776 131.881 32.6077 131.677 33.1057C131.496 33.5811 131.394 33.9885 131.371 34.3281Z" fill="black"/>
<path d="M145.12 42.4432V23.3268H148.515V42.4432H145.12Z" fill="black"/>
<path d="M179.042 42.5111C177.458 41.8546 175.919 41.051 174.425 40.1003C173.451 40.9831 172.353 41.6509 171.131 42.1036C169.931 42.5337 168.709 42.7488 167.464 42.7488C166.219 42.7488 165.076 42.5337 164.035 42.1036C162.993 41.6735 162.144 41.0397 161.488 40.2022C160.854 39.3646 160.537 38.3121 160.537 37.0444C160.537 36.1163 160.718 35.3467 161.081 34.7355C161.465 34.1017 161.907 33.5924 162.405 33.2076C162.925 32.8001 163.412 32.4945 163.865 32.2908C164.34 32.0644 164.68 31.906 164.883 31.8154C164.77 31.6344 164.544 31.3514 164.204 30.9666C163.865 30.5591 163.548 30.0498 163.254 29.4386C162.959 28.8275 162.812 28.1371 162.812 27.3674C162.812 26.4167 163.061 25.6244 163.559 24.9906C164.08 24.3568 164.736 23.8814 165.529 23.5645C166.343 23.225 167.192 23.0552 168.075 23.0552C168.981 23.0326 169.829 23.1684 170.622 23.4627C171.437 23.7569 172.093 24.221 172.591 24.8548C173.112 25.4886 173.372 26.2809 173.372 27.2316C173.372 28.0239 173.18 28.7256 172.795 29.3368C172.41 29.948 171.957 30.4686 171.437 30.8987C170.916 31.3061 170.441 31.623 170.011 31.8494C169.58 32.0758 169.32 32.2116 169.23 32.2569C169.479 32.5738 169.965 33.0831 170.69 33.7848C171.437 34.4865 172.286 35.2222 173.236 35.9918C173.417 35.7428 173.61 35.3693 173.813 34.8713C174.04 34.3507 174.153 33.8074 174.153 33.2415C174.153 32.6756 173.927 32.1776 173.474 31.7475L176.36 29.8461C176.496 30.0045 176.677 30.3554 176.903 30.8987C177.152 31.4193 177.345 32.0644 177.481 32.8341C177.616 33.5811 177.605 34.396 177.447 35.2788C177.311 36.1616 176.937 37.0331 176.326 37.8933C176.892 38.2555 177.469 38.6063 178.058 38.9459C178.669 39.2628 179.416 39.6023 180.299 39.9645L179.042 42.5111ZM167.328 30.661C167.622 30.5025 168.007 30.2875 168.483 30.0159C168.958 29.7216 169.388 29.3821 169.773 28.9972C170.158 28.6124 170.373 28.1936 170.418 27.7409C170.463 27.2203 170.339 26.8015 170.045 26.4846C169.75 26.1451 169.377 25.9187 168.924 25.8055C168.471 25.6697 168.007 25.6584 167.532 25.7716C167.079 25.8621 166.694 26.0658 166.377 26.3827C166.061 26.6997 165.913 27.1411 165.936 27.707C165.959 28.5898 166.423 29.5745 167.328 30.661ZM171.742 38.1649C170.792 37.4406 169.897 36.6822 169.06 35.89C168.222 35.0751 167.453 34.2488 166.751 33.4113C166.049 33.7735 165.404 34.1923 164.816 34.6676C164.25 35.1203 163.967 35.7768 163.967 36.637C163.967 37.4745 164.238 38.1536 164.782 38.6742C165.347 39.1949 166.049 39.5344 166.887 39.6929C167.724 39.8287 168.584 39.7721 169.467 39.5231C170.35 39.2741 171.108 38.8214 171.742 38.1649Z" fill="black"/>
<path d="M199.864 42.7827C198.076 42.7827 196.458 42.4205 195.009 41.6962C193.56 40.9492 192.406 39.8513 191.546 38.4026C190.708 36.9539 190.289 35.143 190.289 32.9699C190.312 30.8421 190.742 29.0312 191.58 27.5372C192.417 26.0432 193.56 24.9114 195.009 24.1418C196.458 23.3721 198.11 22.9873 199.966 22.9873C201.732 22.9873 203.237 23.3042 204.482 23.938C205.727 24.5718 206.723 25.432 207.47 26.5186C208.24 27.6051 208.738 28.8275 208.964 30.1856H205.399C205.241 29.1896 204.867 28.4087 204.279 27.8428C203.713 27.2542 203.045 26.8468 202.275 26.6204C201.506 26.3714 200.736 26.2469 199.966 26.2469C197.952 26.2469 196.401 26.8128 195.315 27.9446C194.251 29.0765 193.719 30.6723 193.719 32.7322C193.719 34.9279 194.239 36.6143 195.281 37.7914C196.345 38.9685 197.884 39.5571 199.898 39.5571C200.736 39.5571 201.551 39.4326 202.343 39.1836C203.135 38.9119 203.814 38.4818 204.38 37.8933C204.946 37.2821 205.308 36.4672 205.467 35.4486H209.066C208.817 36.852 208.308 38.1083 207.538 39.2175C206.791 40.3041 205.773 41.1755 204.482 41.832C203.215 42.4658 201.675 42.7827 199.864 42.7827Z" fill="black"/>
<path d="M218.592 42.7827C217.008 42.7827 215.695 42.4771 214.654 41.866C213.612 41.2548 212.831 40.4172 212.311 39.3533C211.79 38.2668 211.53 37.0331 211.53 35.6523C211.507 33.5698 212.084 31.8607 213.262 30.5252C214.461 29.167 216.238 28.4879 218.592 28.4879C220.879 28.4879 222.61 29.1444 223.787 30.4573C224.987 31.7702 225.587 33.5019 225.587 35.6523C225.587 36.9878 225.338 38.1989 224.84 39.2854C224.342 40.372 223.572 41.2321 222.531 41.866C221.49 42.4771 220.177 42.7827 218.592 42.7827ZM218.592 39.8626C219.588 39.8626 220.347 39.6476 220.867 39.2175C221.411 38.7874 221.773 38.2441 221.954 37.5877C222.135 36.9086 222.226 36.2295 222.226 35.5504C222.226 34.8487 222.135 34.1583 221.954 33.4792C221.773 32.8001 221.411 32.2455 220.867 31.8154C220.347 31.3854 219.588 31.1703 218.592 31.1703C217.574 31.1703 216.793 31.3967 216.25 31.8494C215.729 32.2795 215.367 32.8341 215.163 33.5132C214.982 34.1696 214.891 34.8487 214.891 35.5504C214.891 36.2295 214.982 36.9086 215.163 37.5877C215.367 38.2441 215.729 38.7874 216.25 39.2175C216.793 39.6476 217.574 39.8626 218.592 39.8626Z" fill="black"/>
<path d="M230.703 42.4432C229.866 42.4432 229.311 42.2395 229.04 41.832C228.768 41.4245 228.632 40.9265 228.632 40.338C228.632 39.7947 228.768 39.3194 229.04 38.9119C229.334 38.5045 229.888 38.3007 230.703 38.3007C231.473 38.3007 231.994 38.5045 232.265 38.9119C232.559 39.3194 232.707 39.7947 232.707 40.338C232.707 40.9265 232.559 41.4245 232.265 41.832C231.994 42.2395 231.473 42.4432 230.703 42.4432Z" fill="black"/>
<rect x="27.8557" y="14.2737" width="20.7499" height="35.9665" fill="#2DC846" stroke="black" stroke-width="1.38333"/>
<rect x="34.7737" y="14.2737" width="20.7499" height="27.6665" fill="#5AA6FF" stroke="black" stroke-width="1.38333"/>
<rect x="34.7737" y="28.1067" width="13.8333" height="13.8333" fill="#FF767E" stroke="black" stroke-width="1.38333"/>
</svg>
