<svg width="226" height="73" viewBox="0 0 226 73" fill="none" xmlns="http://www.w3.org/2000/svg">
<path d="M78.2043 25.3965C78.6746 25.3965 79.0796 25.8015 79.4192 26.6114C78.3741 29.4856 77.8515 32.1768 77.8515 34.6851V36.0176C77.8515 38.944 78.5962 40.4072 80.0855 40.4072C81.9929 40.4072 83.2993 37.0628 84.0047 30.3739C84.0047 27.2647 84.2791 25.71 84.8278 25.71L85.4549 25.6316C86.0036 25.6316 86.3302 26.0758 86.4347 26.9642V40.172C86.4347 48.4025 85.0499 53.2231 82.2803 54.6341C81.7577 54.9215 80.9739 55.1697 79.9287 55.3787C77.6294 55.3787 75.0166 54.0331 72.0902 51.3419L71.9727 50.8716C71.9727 50.2706 72.4168 49.8918 73.3052 49.735L76.4014 51.9298C77.6033 52.583 78.5047 52.9096 79.1057 52.9096H80.1639C82.7767 52.9096 84.0831 48.8728 84.0831 40.7991V40.3288H83.7304C82.7375 41.8704 81.4703 42.6412 79.9287 42.6412C78.0214 42.6412 76.6758 41.4131 75.8919 38.9571C75.6306 37.9903 75.5 37.0105 75.5 36.0176V35.6649C75.918 28.8193 76.8195 25.3965 78.2043 25.3965Z" fill="#3C2B1F"/>
<path d="M92.1219 36.8799C93.167 36.906 94.9307 38.735 97.4128 42.3668L97.4912 43.0331C97.4912 43.7647 95.7014 44.3264 92.1219 44.7184L92.0043 44.8359V44.9927C92.553 47.3443 93.1278 48.52 93.7288 48.52H94.1991C95.0352 48.52 96.3024 47.6186 98.0007 45.8158H98.2359C98.7585 45.8158 99.1634 46.1946 99.4509 46.9523C99.4509 47.5794 98.3535 48.6637 96.1587 50.2053C95.5839 50.545 94.8915 50.7932 94.0815 50.95C91.9651 50.95 90.4888 48.9642 89.6527 44.9927C88.4508 44.8098 87.8499 44.3134 87.8499 43.5034C87.8499 42.9286 88.2941 42.5497 89.1824 42.3668V42.5236L89.5744 42.3668V41.387C89.5744 38.3822 90.4235 36.8799 92.1219 36.8799ZM92.357 39.7017H92.0043L91.8475 41.1518V42.3668H92.0043C93.4675 42.3146 94.1991 42.1578 94.1991 41.8965C93.5197 40.8775 92.9057 40.1459 92.357 39.7017Z" fill="#3C2B1F"/>
<path d="M103.191 29.3549C103.923 29.6162 104.288 30.0212 104.288 30.5699L104.68 45.5022V50.3229C104.68 51.2112 104.301 51.6554 103.544 51.6554H103.034C102.564 51.3419 102.329 50.9761 102.329 50.558V46.0117L101.976 30.4915C101.976 29.8383 102.381 29.4594 103.191 29.3549Z" fill="#3C2B1F"/>
<path d="M109.736 29.3549C110.467 29.6162 110.833 30.0212 110.833 30.5699L111.225 45.5022V50.3229C111.225 51.2112 110.846 51.6554 110.089 51.6554H109.579C109.109 51.3419 108.874 50.9761 108.874 50.558V46.0117L108.521 30.4915C108.521 29.8383 108.926 29.4594 109.736 29.3549Z" fill="#3C2B1F"/>
<path d="M120.317 36.1744C122.251 36.1744 123.714 37.6115 124.707 40.4856L124.864 41.3086C124.864 44.1043 123.557 46.9654 120.945 49.8918C119.899 50.8585 118.841 51.3419 117.77 51.3419C116.202 51.3419 115.092 50.4405 114.439 48.6376C114.203 47.8015 114.086 47.0699 114.086 46.4428V45.9725C114.086 41.8442 115.588 38.7089 118.593 36.5663C119.116 36.305 119.69 36.1744 120.317 36.1744ZM116.398 46.3644C116.398 48.1412 116.855 49.0295 117.77 49.0295C119.677 49.0295 121.258 46.5865 122.512 41.7005V40.9559C122.068 39.3359 121.245 38.526 120.043 38.526C119.573 38.526 119.338 38.8526 119.338 39.5058C119.338 39.9499 118.815 40.3027 117.77 40.564C116.855 42.1055 116.398 44.039 116.398 46.3644Z" fill="#3C2B1F"/>
<path d="M137.692 38.6435C139.495 39.8454 140.396 41.7005 140.396 44.2089C140.396 47.6055 139.26 49.9179 136.987 51.1459L135.497 51.3811C134.609 51.3811 133.668 50.95 132.675 50.0877H132.401C131.591 51.1329 130.833 51.6554 130.128 51.6554C128.273 51.6554 127.201 49.9048 126.914 46.4036V44.2872C127.097 40.969 127.789 39.3098 128.991 39.3098C129.644 39.3098 130.023 39.7148 130.128 40.5248C129.527 41.5699 129.226 43.0331 129.226 44.9143V45.659C129.331 48.0105 129.579 49.1863 129.971 49.1863C130.363 49.1863 130.768 48.507 131.186 47.1483L131.108 44.444C131.108 42.6412 131.539 41.7397 132.401 41.7397C133.394 41.7397 133.89 42.7195 133.89 44.6792H134.047L133.655 47.1483C134.099 48.4547 134.713 49.1079 135.497 49.1079H135.732C136.882 49.1079 137.627 47.8799 137.966 45.4238V43.2291C137.966 42.3929 137.47 41.3609 136.477 40.1328L136.32 39.7801C136.32 39.2314 136.777 38.8526 137.692 38.6435Z" fill="#3C2B1F"/>
<path d="M160.476 28.9238C161.548 27.6958 162.697 27.0818 163.925 27.0818C165.153 27.0818 165.885 28.0224 166.12 29.9036V30.0212C166.12 30.9618 165.584 33.0129 164.513 36.1744L166.355 35.7825C168.602 35.7825 169.909 37.2195 170.274 40.0937V40.6815C170.274 44.1305 168.106 47.2789 163.768 50.1269C162.357 50.6756 161.338 50.95 160.711 50.95C158.595 50.95 157.132 49.7219 156.322 47.2659C156.374 46.9785 156.701 46.5735 157.302 46.0509C157.589 34.2409 157.837 28.3359 158.046 28.3359C158.491 27.8917 158.895 27.6696 159.261 27.6696C159.967 27.9309 160.319 28.349 160.319 28.9238H160.476ZM160.084 39.7017H160.241C162.384 35.6518 163.52 32.5164 163.651 30.2955V29.3941H163.259C162.71 29.3941 161.979 30.8704 161.064 33.8229C160.411 36.6186 160.084 38.5782 160.084 39.7017ZM161.574 42.1317L160.986 42.3668L160.006 42.2884V42.3668L159.849 42.8763V46.9523L159.732 48.4025L160.594 48.6376C162.815 48.6376 165.01 46.9654 167.178 43.621C167.779 42.1317 168.08 40.9036 168.08 39.9369C168.08 38.735 167.505 38.134 166.355 38.134H166.198C164.944 38.134 163.403 39.4666 161.574 42.1317Z" fill="#3C2B1F"/>
<path d="M178.111 36.1744C180.045 36.1744 181.508 37.6115 182.501 40.4856L182.657 41.3086C182.657 44.1043 181.351 46.9654 178.738 49.8918C177.693 50.8585 176.635 51.3419 175.564 51.3419C173.996 51.3419 172.885 50.4405 172.232 48.6376C171.997 47.8015 171.879 47.0699 171.879 46.4428V45.9725C171.879 41.8442 173.382 38.7089 176.387 36.5663C176.909 36.305 177.484 36.1744 178.111 36.1744ZM174.192 46.3644C174.192 48.1412 174.649 49.0295 175.564 49.0295C177.471 49.0295 179.052 46.5865 180.306 41.7005V40.9559C179.862 39.3359 179.039 38.526 177.837 38.526C177.366 38.526 177.131 38.8526 177.131 39.5058C177.131 39.9499 176.609 40.3027 175.564 40.564C174.649 42.1055 174.192 44.039 174.192 46.3644Z" fill="#3C2B1F"/>
<path d="M190.665 36.1744C192.598 36.1744 194.062 37.6115 195.054 40.4856L195.211 41.3086C195.211 44.1043 193.905 46.9654 191.292 49.8918C190.247 50.8585 189.189 51.3419 188.117 51.3419C186.55 51.3419 185.439 50.4405 184.786 48.6376C184.551 47.8015 184.433 47.0699 184.433 46.4428V45.9725C184.433 41.8442 185.936 38.7089 188.94 36.5663C189.463 36.305 190.038 36.1744 190.665 36.1744ZM186.746 46.3644C186.746 48.1412 187.203 49.0295 188.117 49.0295C190.025 49.0295 191.605 46.5865 192.86 41.7005V40.9559C192.415 39.3359 191.592 38.526 190.391 38.526C189.92 38.526 189.685 38.8526 189.685 39.5058C189.685 39.9499 189.162 40.3027 188.117 40.564C187.203 42.1055 186.746 44.039 186.746 46.3644Z" fill="#3C2B1F"/>
<path d="M198.947 30.2172H199.182C199.522 30.2172 199.848 30.5046 200.162 31.0794L200.005 33.7445V35.2338L200.162 42.0925L200.279 42.4844H200.397C201.52 41.4393 202.5 39.5972 203.336 36.9583L204.199 36.6839C204.93 36.7884 205.296 37.115 205.296 37.6637C205.296 39.3621 204.081 41.6483 201.651 44.5224V44.7967C204.865 48.5331 206.981 50.4013 208 50.4013H208.235L209.215 49.8134H209.568C210.117 49.8134 210.522 50.1792 210.783 50.9108C210.783 51.7469 209.855 52.3217 208 52.6352C206.145 52.6352 203.728 50.754 200.75 46.9915H200.397L200.514 49.1079V51.1459C200.358 51.9559 199.953 52.3609 199.299 52.3609C198.568 52.2041 198.202 51.7991 198.202 51.1459V50.9108L198.045 46.4036C197.758 46.4036 197.562 45.9987 197.457 45.1887L197.967 44.2089L197.732 35.3906V33.6661C197.732 31.3668 198.137 30.2172 198.947 30.2172Z" fill="#3C2B1F"/>
<g clip-path="url(#clip0_4329_767)">
<mask id="mask0_4329_767" style="mask-type:alpha" maskUnits="userSpaceOnUse" x="17" y="11" width="42" height="53">
<path d="M56.0293 13.7173H24.1038C24.1038 13.7173 20.3478 16.3301 20.3478 22.8622C20.3478 29.3943 24.1038 32.0071 24.1038 32.0071H56.0293C56.0293 32.0071 52.2734 29.3943 52.2734 22.8622C52.2734 16.3301 56.0293 13.7173 56.0293 13.7173ZM20.3478 42.4584H52.2734C52.2734 42.4584 56.0293 45.0712 56.0293 51.6033C56.0293 58.1354 52.2734 60.7482 52.2734 60.7482H20.3478C20.3478 60.7482 24.1038 58.1354 24.1038 51.6033C24.1038 45.0712 20.3478 42.4584 20.3478 42.4584Z" fill="white" stroke="white" stroke-width="5.22566" stroke-linecap="round" stroke-linejoin="round"/>
</mask>
<g mask="url(#mask0_4329_767)">
<path d="M60.7246 5.87939H15.6533V68.5873H60.7246V5.87939Z" fill="#EFC01A"/>
</g>
</g>
<g clip-path="url(#clip1_4329_767)">
<mask id="mask1_4329_767" style="mask-type:alpha" maskUnits="userSpaceOnUse" x="17" y="-18" width="42" height="53">
<path d="M56.0293 -15.0239H24.1038C24.1038 -15.0239 20.3478 -12.4111 20.3478 -5.87902C20.3478 0.653055 24.1038 3.26588 24.1038 3.26588H56.0293C56.0293 3.26588 52.2734 0.653055 52.2734 -5.87902C52.2734 -12.4111 56.0293 -15.0239 56.0293 -15.0239ZM20.3478 13.7172H52.2734C52.2734 13.7172 56.0293 16.33 56.0293 22.8621C56.0293 29.3942 52.2734 32.007 52.2734 32.007H20.3478C20.3478 32.007 24.1038 29.3942 24.1038 22.8621C24.1038 16.33 20.3478 13.7172 20.3478 13.7172Z" fill="white" stroke="white" stroke-width="5.22566" stroke-linecap="round" stroke-linejoin="round"/>
</mask>
<g mask="url(#mask1_4329_767)">
<path d="M60.7246 -22.8623H15.6533V39.8456H60.7246V-22.8623Z" fill="#EFC01A"/>
</g>
</g>
<defs>
<clipPath id="clip0_4329_767">
<rect width="45.0713" height="33.9668" fill="white" transform="matrix(-1 0 0 1 60.7246 34.6201)"/>
</clipPath>
<clipPath id="clip1_4329_767">
<rect width="45.0713" height="33.9668" fill="white" transform="matrix(-1 0 0 1 60.7246 5.87842)"/>
</clipPath>
</defs>
</svg>
